<svg width="78" height="78" viewBox="0 0 78 78" fill="none" xmlns="http://www.w3.org/2000/svg">
<g clip-path="url(#clip0_4324_6)">
<rect width="78" height="78" rx="39" fill="#FDFAF9"/>
<path d="M39.0277 0.0284272C39.6094 -0.0362618 40.1976 0.00968038 40.763 0.163937C42.4038 0.617649 43.597 1.79663 44.0292 3.47807C44.3493 4.72119 44.5813 6.56672 46.0723 6.91496C47.7328 7.30285 49.0566 5.62938 50.325 4.83378C52.4467 3.41499 55.0214 4.34035 55.6738 6.8651C55.9851 8.06832 55.2896 9.78373 55.8901 10.7345C56.0756 11.0334 56.3777 11.237 56.7206 11.294C57.5059 11.4326 58.4762 10.9359 58.9281 10.267C59.1035 10.0076 59.3488 9.32131 59.53 9.18511L59.5709 9.24722C59.6412 11.1079 57.8897 12.5696 56.0871 12.1565C57.9349 13.1855 57.3296 13.6276 57.5986 15.2251C57.9112 16.0879 59.6755 16.5483 60.3478 16.8264C62.6999 17.7998 63.5159 20.8376 61.8148 22.8013C61.3278 23.3639 60.9092 23.8986 60.568 24.5529C59.6025 26.4047 62.014 29.4062 63.9524 28.7133C64.441 28.5375 64.681 27.9514 64.8726 27.4625L64.9575 27.4937C65.0006 27.5769 65.0089 27.6588 64.9914 27.7506C64.6779 29.3841 63.6214 30.0474 62.0712 29.8527C62.429 31.9524 61.293 33.2125 59.8685 34.5296C59.0763 35.2625 58.3411 36.0971 58.302 37.2307C58.2242 39.482 60.8894 40.8675 62.2954 38.8248C62.4005 38.6718 62.4567 38.4644 62.5842 38.3298L62.6582 38.3514C62.721 38.541 62.6212 38.7586 62.5288 38.9358C62.0097 39.9316 61.2741 40.417 60.2546 40.7583C62.5073 41.6043 63.3593 43.889 62.0347 45.9875C60.8054 47.9354 58.9585 47.6459 57.0139 47.8888C56.0374 48.011 54.9634 49.0605 55.3129 50.1418C55.8009 51.6588 57.5647 51.6606 58.6071 50.7417C58.7562 50.6102 59.2002 50.0854 59.363 50.2353C59.3559 50.2724 59.3515 50.3136 59.33 50.3463C57.7881 52.673 56.2365 52.5755 54.0647 51.2302C54.3843 51.6507 54.8283 52.0055 55.1748 52.4086C56.3012 53.7184 55.7754 54.7439 54.4991 55.5124C54.5404 55.4256 54.5809 55.3383 54.6204 55.2507C55.2139 53.9188 53.4557 54.028 52.6253 53.6742C56.055 57.5492 57.9785 63.2379 59.2486 68.2045C59.3115 68.4506 59.4878 69.0447 59.4363 69.2621L59.3603 69.2854C59.2548 69.1512 58.9914 67.9007 58.9154 67.6091C58.5179 66.0916 58.0603 64.5911 57.5432 63.1113C55.9411 58.5191 53.1823 53.0751 48.6684 50.8844C48.6038 50.9971 48.547 51.1148 48.5 51.2365C47.8805 52.8103 49.356 53.9475 50.7796 53.786C50.9278 53.769 51.2386 53.6773 51.3578 53.7248L51.3411 53.803C51.159 54.0137 50.9484 54.075 50.7031 54.177C48.5532 55.0717 45.965 53.7677 45.1486 51.6074C45.0056 51.2298 44.9419 50.9 44.8799 50.4925C43.976 50.7609 43.1556 51.1461 42.4266 51.7599C38.5771 55.0029 36.9593 63.2911 36.2206 68.065C36.1539 68.4962 35.8959 70.9115 35.7466 71.1021L35.6866 71.0762C35.6811 71.0592 35.6755 71.0426 35.6701 71.026C36.2039 65.9073 37.4117 59.4411 39.7584 54.959C41.2286 52.1509 42.6742 50.965 44.8896 50.2791C44.9401 49.4998 45.1217 49.0247 45.5341 48.3792C45.5139 48.3474 45.4937 48.3152 45.4739 48.283C43.91 45.7191 43.9017 42.7289 44.5458 39.869C43.229 41.8468 41.1926 43.961 39.3201 45.3854C37.1802 47.0272 33.8264 49.0314 31.1721 47.3583C29.8664 46.5351 28.6326 44.777 27.6629 43.5334C27.9184 44.5622 28.1747 46.3271 28.3401 47.407C28.7071 49.9459 29.1777 52.5329 29.1046 55.1053C29.0603 56.6684 28.6882 57.7304 28.0254 59.0819C27.5794 59.9914 27.4853 60.6029 26.6521 61.3138C25.6327 62.1839 24.8494 62.391 23.5585 62.3123C21.6589 63.7363 19.5005 64.8256 17.9061 66.7309C15.768 69.2858 15.6351 72.3918 16.2254 75.5507C16.3104 76.0057 16.4114 76.4709 16.5154 76.9232C16.5911 77.2529 16.7276 77.6162 16.7565 77.9494L16.6907 78L16.6126 77.9481C16.4617 77.6582 16.3449 76.9975 16.2632 76.6431C15.7948 74.6134 15.5387 72.615 15.9132 70.5402C16.6827 66.2782 20.0809 64.4852 23.2723 62.2733C21.6806 61.8501 20.1406 60.8213 20.1861 58.9454C20.2548 56.11 23.8875 56.0211 23.9765 53.2895C24.0569 50.8186 21.551 50.6795 20.2564 49.2551C18.6501 47.4871 19.706 45.724 21.1501 44.3364C20.06 44.8978 17.6854 45.8614 17.4156 47.2701C16.9895 49.4949 20.5619 49.4202 21.3208 50.9014C22.4038 53.0148 19.3774 54.0101 18.9439 55.7204C18.6193 57.0249 19.444 57.423 19.9588 58.2632C19.8597 58.2811 19.7555 58.2212 19.673 58.1594C18.4833 57.2697 18.0549 55.8828 18.8962 54.5958C17.7559 55.4788 16.4697 55.9235 15.0214 55.7576C14.7327 55.7244 13.4078 55.5428 13.3815 55.1652C13.5201 55.1241 13.6251 55.1719 13.7673 55.2082C15.2882 55.5942 17.2862 55.0449 17.7486 53.3476C17.8318 53.0349 17.7644 52.4712 17.5577 52.2189C16.7692 51.2647 15.1354 51.9925 14.1566 52.1589C9.46849 52.9548 7.59696 46.8281 12.3126 45.1966C13.4064 44.8186 15.3144 44.2746 16.1822 43.5902C14.3553 44.28 12.4898 43.9596 11.5723 42.0194C11.4899 41.8454 11.318 41.4267 11.3861 41.2532C11.6614 41.4486 11.9894 42.0651 12.3166 42.3429C14.2784 44.0085 17.4122 41.8414 15.4939 39.6032C14.4439 38.5727 12.7646 38.362 11.4975 37.6989C7.57333 35.6457 8.66533 31.1857 12.0647 29.1189C10.8898 28.6627 10.1644 28.002 9.76918 26.7535C9.69968 26.5341 9.54284 25.8442 9.63589 25.6624L9.70184 25.6555C9.84033 25.7909 9.99389 26.5588 10.3516 26.9429C10.7779 27.4644 11.2763 27.6687 11.9272 27.7404C12.8695 27.8439 14.1447 27.0783 14.3524 26.1064C14.7338 24.3209 12.2857 23.5137 12.4659 21.6579C12.6024 20.2518 13.878 18.9588 14.853 18.0741C13.8423 14.8123 15.5544 12.2398 18.7345 11.4402C19.6144 11.2189 20.4661 11.1312 21.2949 10.7323C22.22 10.2871 22.6893 9.41628 23.5488 8.91149C24.0217 8.63945 24.5324 8.69292 25.0334 8.85176C24.5071 7.17044 24.6046 5.54075 25.6308 4.07351C26.6391 2.63146 28.4231 1.95262 30.0717 2.61562C30.6818 2.86096 31.2366 3.31174 31.8502 3.50635C32.2821 3.64607 32.7461 3.64439 33.177 3.50159C35.2789 2.80977 36.1623 0.458698 39.0277 0.0284272Z" fill="#473C39" stroke="#473C39" stroke-width="0.3"/>
<path d="M34.1075 5.00819C34.7679 4.94561 35.7723 5.25295 36.3666 5.54123C37.2495 5.96825 38.0171 6.60961 38.6028 7.40948C39.0966 8.07735 39.4937 8.8149 39.7813 9.59917C40.3929 11.2232 40.6299 13.1359 41.99 14.3124C43.7713 15.8534 45.7822 14.7935 47.5143 16.1975C48.1646 16.7246 48.4522 17.1963 48.7696 17.952C49.9411 20.7393 47.3195 22.8381 47.618 25.28C47.9645 28.1146 51.7786 28.2587 53.4949 29.6575C54.2609 30.2817 54.92 31.2915 54.99 32.3067C55.1892 35.205 52.3758 36.2837 50.8931 38.1663C50.4489 38.7306 50.124 39.4628 50.2392 40.1835C50.4833 41.715 52.137 41.6807 53.1576 42.5176C53.8884 43.1167 54.4408 44.1638 54.5106 45.093C54.7675 47.9695 51.8816 48.0645 50.1069 49.1355C49.8092 49.3151 48.6386 50.6521 48.3695 51C47.1189 50.5247 46.363 49.808 45.5742 48.7177C46.9769 47.2169 48.1686 47.5279 49.581 46.3454C49.9969 45.9969 50.3571 45.2771 50.3381 44.713C50.2194 42.3001 46.9387 42.4006 45.7043 40.9623C44.3975 39.4398 45.962 37.3441 47.1057 36.3099C48.0155 35.4871 49.0299 34.8379 49.9574 34.0513C50.9608 33.2001 51.3148 31.6662 50.7559 30.4576C49.5638 27.8586 45.9238 28.7354 44.1455 26.9342C43.898 26.6835 43.7181 26.1491 43.7717 25.792C44.0616 24.0556 46.3837 23.6732 47.5481 22.6997C48.2781 22.0892 48.6611 21.4725 48.7692 20.5459C48.8738 19.6005 48.6095 18.651 48.0335 17.9041C46.5442 15.9656 44.3086 16.378 42.2499 16.1824C40.3819 16.0753 38.7017 14.4705 38.3671 12.597C37.8746 9.84162 37.2118 7.02032 33.9733 6.64871C33.6285 6.60917 32.4629 6.54712 32.1851 6.77202L32.1965 6.83389C32.4356 6.95206 32.6474 6.92245 32.8902 6.98309C33.3014 7.08574 33.7628 7.24717 34.1319 7.45753C34.8098 7.83499 35.3508 8.42591 35.6748 9.1429C36.9055 11.9015 34.7363 13.8564 35.3194 16.4233C35.4733 17.1004 36.0263 17.771 36.6366 18.0898C38.1934 18.9033 39.5245 18.4669 41.0591 17.9988C39.7043 18.7232 38.6362 19.4759 37.0778 19.7691C35.5326 20.0598 34.2442 19.5096 33.6001 17.9783C32.5587 15.3239 34.9342 13.1395 34.527 10.4146C34.0102 6.95711 29.1148 6.07835 27.2781 8.86445C26.7566 9.66937 26.5656 10.6521 26.7465 11.6C26.8161 11.9497 27.094 13.0502 27.3631 13.2335L27.4306 13.1989C27.4211 12.7292 26.9612 12.2372 27.0855 11.3668C27.1442 10.715 27.3792 10.0936 27.9113 9.66849C29.1359 8.69017 30.6992 9.45059 31.52 10.5315C32.7505 12.1517 32.2049 13.6172 31.9245 15.4347C31.7668 16.4577 32.0496 17.6421 32.7057 18.437C33.5557 19.4669 34.0439 19.5507 35.184 19.9538C36.0948 20.3464 36.7109 20.5473 37.737 20.411C39.1767 20.2198 40.9856 19.4669 42.1338 20.8438C42.3259 21.0742 42.5031 21.5341 42.537 21.8411C42.7393 23.6706 40.3767 24.3552 40.2852 26.1721C40.2434 26.8037 40.432 27.3948 40.819 27.8793C41.6619 28.9347 43.0489 28.8617 44.2788 28.9633C45.1143 29.0695 45.875 29.3347 46.433 30.0056C47.5872 31.3941 47.0262 33.0816 45.3789 33.6338C45.2158 33.6885 44.766 33.7883 44.6657 33.873L44.6947 33.9567C44.7624 33.9781 44.7739 33.9804 44.8434 33.9802C46.046 33.9758 46.6828 33.7033 47.5244 32.8682C47.3502 33.3379 47.1831 33.8242 47.0191 34.2966C45.2738 39.3287 41.8981 43.8132 37.4349 46.6141C35.8989 47.5778 34.0509 48.4638 32.1966 47.9853C31.5803 47.8241 31.0047 47.5302 30.5079 47.1233C28.9857 45.8893 27.1122 42.997 26.0673 41.2967C24.65 38.9906 24.0656 36.2495 23.5392 33.6215C23.013 30.9947 23.0122 29.4506 23.6508 26.8514C24.4309 26.6886 25.6251 26.1555 25.5973 25.1829C25.6134 24.2631 24.6342 23.7283 24.1398 23.1584C22.7079 21.5077 24.0914 20.9815 25.2279 20.1036C25.7203 19.6138 25.7918 18.7514 25.6788 18.1018C25.4374 16.7146 24.1224 15.0263 25.3143 13.7262C25.8125 13.1827 26.6198 13.1943 27.2928 13.2233C26.1399 12.0165 23.8014 11.8019 23.0944 13.6318C22.8135 14.3591 23.0752 15.0032 23.0048 15.7351C22.9421 16.3859 21.7908 16.4523 21.2801 16.6142C20.9339 16.7223 20.6074 16.888 20.3138 17.1049C19.704 17.5537 19.2507 18.1905 19.0199 18.9222C17.9345 22.2642 21.2356 23.7135 20.8219 26.0705C20.6789 26.8849 19.9909 27.0118 19.4253 27.4366C19.1248 27.6622 18.8705 27.954 18.7183 28.3045C18.2651 29.3482 19.112 29.7394 18.9694 30.5605C18.7466 31.8436 16.2687 32.8495 15.2774 33.5251C14.5163 34.0437 13.8151 34.7342 13.648 35.6928C13.2559 37.942 16.257 38.4414 17.2622 39.9512C17.5914 40.4455 17.7132 41.0266 17.5987 41.6146C17.4519 42.3695 16.9519 43.0024 16.3404 43.4278C15.5866 43.9522 14.5603 44.1602 13.6673 43.9711C12.7967 43.7871 12.166 43.2757 11.6868 42.5248C12.2139 42.9583 12.5158 43.1861 13.174 43.3657C14.3258 43.6795 15.8479 42.9259 16.0242 41.661C16.4048 38.9304 12.8564 38.6642 11.2023 37.6965C8.377 36.1739 8.42765 32.9175 10.4583 30.7019C10.9732 30.1401 11.429 29.8117 12.0562 29.3955C13.7044 29.7044 15.257 29.3676 16.192 27.8398C17.2585 27.3914 18.0433 26.9188 18.4127 25.7301C19.2876 22.9144 16.0045 21.2717 16.5859 18.4363C16.917 16.8215 17.9782 15.8894 19.5045 15.4813C20.5032 15.2095 21.4851 15.1147 22.3169 14.4295C23.3916 13.544 23.3985 12.1634 24.5242 11.3812C25.2369 10.8861 25.8266 11.3816 26.152 11.1579C26.0424 10.6891 24.8147 10.3619 24.3689 10.4331C23.0339 10.6464 22.5896 11.9015 21.4547 12.5698C19.9879 13.4334 18.1795 13.1195 16.9419 14.4095C15.9384 15.4871 15.6801 16.8375 14.7743 18.0266C13.9556 14.8861 15.4447 12.6003 18.4792 11.7566C19.4624 11.4833 20.383 11.4117 21.3121 10.9242C22.6254 10.2352 23.1894 8.40969 24.9074 9.19422C25.0073 9.47071 25.0686 9.6504 25.2262 9.89622C25.4912 10.3094 25.9523 10.3997 26.0907 10.8552C26.1128 10.928 26.1014 10.9065 26.1692 10.9468C26.1431 10.5787 26.0894 10.231 26.0529 9.87158C25.9358 8.7173 26.529 7.22554 27.2466 6.34784C27.5751 5.94671 27.9768 5.61481 28.4291 5.3705C29.9556 4.55458 30.1869 5.82038 31.4005 5.68972C32.2725 5.59593 33.0223 5.11058 34.1075 5.00819Z" fill="#FDFAF9" stroke="#473C39" stroke-width="0.3"/>
<path d="M29.4159 4C30.8499 4.06632 31.4957 5.11128 32.7871 5.39585C33.5395 5.53695 34.3106 5.21516 35.0409 5.11137C37.5178 4.759 40.5618 6.42622 41.418 8.80544C41.7895 9.83721 41.8674 10.5516 42.4957 11.5216C44.2929 14.3335 47.2205 13.3822 49.9841 13.8887C51.6239 14.1894 53.3207 15.4491 53.2005 17.2919C53.0861 19.0413 51.2021 20.1519 50.1662 21.3973C49.0155 22.7805 48.8668 24.401 49.8841 25.9108C50.6561 27.119 52.0115 27.9368 53.4359 28.1444C54.9893 28.3708 56.4065 28.4409 57.3338 29.9311C57.6792 30.4894 57.8674 31.1303 57.878 31.7861C57.9417 34.6128 55.283 35.4195 54.6569 37.7683C54.2693 39.1579 55.145 40.4949 56.2779 41.227C57.5275 42.0336 59.4262 43.0701 58.9144 44.9145C58.2523 47.3001 54.5363 47.9275 52.5299 48.7719C51.5332 49.1915 50.8457 49.4321 49.9099 50C50.4857 49.3469 50.9529 49.1179 51.757 48.7936C52.4008 48.5668 53.0812 48.3588 53.674 48.0162C54.353 47.6236 54.9203 47.0441 55.1219 46.2699C55.2839 45.6478 55.2144 44.9424 55.0079 44.3386C54.0607 41.5642 51.7962 42.1628 51.0423 40.8304C49.9642 38.9243 53.301 36.9549 54.3792 35.8134C54.8927 35.2696 55.3248 34.6155 55.5353 33.8936C55.756 33.1381 55.7252 32.383 55.4481 31.6469C54.179 28.2786 49.901 29.1098 48.4913 26.5082C47.56 24.7905 48.9968 22.9901 49.464 21.3679C49.8129 20.1572 49.7328 18.903 49.1027 17.7954C48.4361 16.6229 47.3224 15.9083 45.9918 15.7284C45.2924 15.6339 44.6013 15.6298 43.9152 15.4409C40.8457 14.5957 40.9956 11.1438 39.6483 8.82815C38.449 6.7668 36.1183 5.0828 33.6293 5.60205C32.895 5.7553 32.1444 6.19495 31.387 6.16585C30.7859 6.1427 30.4496 5.7442 29.9014 5.61358C29.344 5.48077 28.7917 5.67352 28.3217 5.96708C26.9667 6.81336 26.3583 8.15854 26.0085 9.65303C25.9037 7.41999 26.7478 4.23555 29.4159 4Z" fill="#FDFAF9" stroke="#473C39" stroke-width="0.3"/>
<path d="M42.0136 8C42.057 8.0436 42.0494 8.02982 42.0763 8.08032C42.5748 9.00566 42.9556 9.54207 44.004 9.94322C45.3796 10.4693 46.611 9.89203 47.8708 9.35527C49.7599 8.51966 52.1175 8.87267 53.4949 10.3905C54.1874 11.153 54.8451 12.6002 56.197 11.988C56.5478 12.2153 57.4573 12.7101 57.6719 12.971C58.6332 14.1416 57.4427 14.724 58.7439 15.9494C55.9749 14.7972 56.4701 12.8122 56.1594 12.6058C56.1213 12.6361 56.0625 12.6877 56.0483 12.7323C55.7715 13.6143 55.8021 14.6762 56.093 15.5117C56.6951 17.2408 58.033 17.2772 59.5408 17.9646C60.1853 18.2584 60.6655 18.8073 60.8627 19.4509C61.1325 20.3312 60.9918 20.9877 60.553 21.7749C59.4251 23.5035 58.5758 23.6589 58.9289 26C57.0482 25.505 54.766 25.7785 53.3871 24.3835C53.0415 24.0388 52.7977 23.6149 52.6806 23.1539C52.2281 21.2998 54.2162 20.106 55.0988 18.6241C55.4759 17.9762 55.6821 17.2527 55.6995 16.5142C55.7324 15.2616 55.224 14.2045 54.3102 13.3132C52.914 11.9514 50.9218 11.447 48.9648 11.8008C47.9136 11.9933 46.8912 12.3355 45.8107 12.3146C44.1476 12.2825 42.6246 11.4038 42.1634 9.85156C41.967 9.19098 41.9939 8.6748 42.0136 8Z" fill="#FDFAF9" stroke="#473C39" stroke-width="0.3"/>
<path d="M22.9441 28C22.9868 28.3251 22.7677 29.4376 22.7835 29.9452C22.8308 31.4617 23.1063 32.8151 22.2738 34.1561C21.5922 35.2539 20.8637 36.4097 21.1619 37.7983C21.5762 40.2453 24.1745 40.7812 24.9758 42.8676C25.8433 45.1265 23.745 45.6374 23.0227 47.2003C22.5276 49.0513 24.9688 49.4801 25.8982 50.2455C26.6417 50.8308 27.0328 51.6358 26.9978 52.6676C26.9014 55.5069 22.884 56.0931 24.1529 59.5265C24.3315 60.0095 24.6514 60.3124 25.0895 60.4926C24.876 60.6909 24.7211 60.8226 24.4928 61C23.485 60.863 22.3444 60.1625 22.2749 58.9328C22.1965 57.5469 23.5572 56.3039 24.3136 55.3344C25.1657 54.2123 25.6106 52.6374 24.6449 51.3899C23.6706 50.1312 21.9447 50.286 20.8897 49.0914C19.7461 47.7967 20.2098 46.0288 21.0854 44.7377C21.4264 44.233 21.9472 43.7508 22.2203 43.2207C22.3829 42.9121 22.4632 42.5585 22.4519 42.2018C22.3871 39.4817 17.9621 39.1108 18.0002 36.0051C18.0251 33.9732 19.4863 32.742 20.6332 31.4035C20.9972 31.7386 21.3666 32.094 21.5601 32.5721C22.1364 33.9958 20.733 35.0385 19.597 34.3815C19.3764 34.254 19.1675 34.114 18.9415 34.005L18.8934 33.9822C19.505 34.9033 20.6165 35.0826 21.4987 34.5352C21.9176 34.2799 22.2256 33.849 22.3529 33.3401C22.6191 32.2698 21.9533 31.2758 21.4859 30.3982C22.1494 29.5117 22.4478 28.9953 22.9441 28Z" fill="#FDFAF9" stroke="#473C39" stroke-width="0.3"/>
<path d="M43.0522 12C44.9297 13.2742 46.5419 12.6524 48.5709 12.2274C49.9191 11.9449 51.5201 12.2778 52.6467 13.0457C54.8818 14.5566 55.4106 17.1859 53.8187 19.3693C52.9268 20.593 51.4942 21.7936 51.7965 23.4296C51.9454 24.2331 52.4614 24.9238 53.1392 25.38C54.6308 26.3848 56.4673 26.0706 58.1227 26.6373C58.8195 28.3347 60.1064 29.5746 61.9293 30.0538C62.1208 31.356 61.9457 32.0653 61.1258 33.1896C59.8658 34.9175 57.1813 36.0141 57.4573 38.5154C57.5435 39.2961 57.9961 39.9215 58.6148 40.3805C58.9271 40.6082 59.2644 40.8001 59.6207 40.9527C58.5689 41.103 57.4328 40.9012 56.5708 40.2637C55.9884 39.8324 55.5804 39.2026 55.4859 38.4853C55.3688 37.5942 55.7506 36.7571 56.3093 36.0774C57.6457 34.4513 60.4641 33.3651 60.2107 30.8646C60.1214 29.9833 59.6352 29.131 58.9416 28.5723C56.3643 26.4956 52.8351 29.2396 49.9123 26.0181C49.3526 25.4009 48.9446 24.6377 48.8538 23.8068C48.7462 22.8248 49.1311 21.9381 49.7525 21.1871C50.9213 19.7748 53.1151 18.5766 52.9122 16.4845C52.8237 15.5737 52.3044 14.781 51.5927 14.2132C50.2718 13.1599 48.4584 13.0866 46.8338 13.0648C46.2101 13.0565 45.5833 13.0705 44.9696 12.947C44.256 12.8017 43.5837 12.5034 43 12.0733L43.0522 12Z" fill="#FDFAF9" stroke="#473C39" stroke-width="0.3"/>
<path d="M34 7.00683C34.8231 6.95566 35.8368 7.19351 36.5455 7.6699C39.1726 9.49461 38.0145 12.8736 39.998 15.1869C42.1125 17.6526 45.0018 15.8516 47.3289 17.441C48.0767 17.9443 48.6012 18.7501 48.7818 19.6739C48.8907 20.2078 48.8763 20.7851 48.7194 21.3006C48.0459 23.5128 45.3773 23.4564 44.2882 25.1998C44.0738 25.5431 43.9485 26.166 44.0671 26.5614C44.7039 28.6826 48.1851 28.4545 49.6996 29.5135C50.3448 29.9645 50.7769 30.5484 50.9372 31.3108C51.0845 31.9945 50.9701 32.7125 50.6199 33.3061C50.0954 34.1771 49.0059 34.7091 48.0927 34.9734C47.9324 35.0197 47.7948 35.0095 47.6572 34.9115L47.6501 34.8268C47.8475 34.424 48.4683 34.1045 48.832 33.9014C51.0385 32.5879 49.8848 29.8821 48.2518 32.1176C48.4468 31.2495 48.4543 30.5241 48.0349 29.7154C47.0243 27.767 44.9646 28.7931 43.3932 28.3364C42.5598 28.0942 42.2252 27.1754 42.4758 26.3394C43.1543 24.0478 46.7454 24.0443 47.4222 21.8304C48.3269 18.872 45.3647 16.8681 42.8906 17.5664C41.2555 18.0278 39.4587 19.0156 37.8613 18.3328C34.9462 17.063 36.6591 14.0939 36.9419 11.8295C37.2559 9.31503 36.0677 7.82155 34 7.00683Z" fill="#FDFAF9" stroke="#473C39" stroke-width="0.3"/>
<path d="M39.5066 1.01318C39.5542 1.008 39.5999 1.00572 39.6473 1.00397C40.5319 0.97134 41.3537 1.1394 42.1388 1.52397C45.0585 2.95434 43.8729 5.529 45.5809 6.93549C47.5566 8.5622 49.6649 6.13907 51.2775 5.29864C51.7682 5.04305 52.3121 4.87304 52.8772 4.84985C53.7223 4.81515 54.6023 5.13525 55.2207 5.66488C55.9789 6.31464 56.2849 7.27396 56.2374 8.21042C56.2088 8.77966 56.0935 9.34914 56.1222 9.9201C56.1451 10.3753 56.292 10.865 56.6765 11.1741C57.0063 11.4394 57.471 11.5101 57.8944 11.4768C58.8059 11.4054 59.4251 10.8915 60 10.2833C59.6675 10.9219 59.1173 11.5725 58.4281 11.7864C55.9318 12.561 55.7378 11.1112 55.8153 9.32799C55.8619 8.25149 55.1544 6.96104 54.0579 6.55283C51.5701 5.61899 49.9091 7.86623 48.2717 9.1414C47.2147 9.96501 45.7794 10.284 44.4993 9.76838C43.5466 9.31795 43.168 8.6695 42.8185 7.77942C42.9901 6.963 43.1653 6.13123 43.1102 5.29562C43.0452 4.30658 42.642 3.39629 41.8242 2.73958C41.2883 2.30894 40.625 2.06305 39.9242 1.98002C36.6059 1.587 35.5276 4.80992 33.6081 4.98704C32.1083 5.12537 31.0687 3.5456 29.4245 3.67185C28.5738 3.73717 27.8518 4.18417 27.3166 4.77979C26.0368 6.20383 25.9025 8.03412 26.0856 9.79965C25.8488 9.43905 25.7563 9.37789 25.3968 9.14353C24.7352 7.63521 24.8823 5.89369 25.9789 4.58977C26.4208 4.0554 27.0139 3.64474 27.6924 3.40319C30.4956 2.42978 31.4159 4.96744 33.5939 4.20981C35.7689 3.45333 36.74 1.31514 39.5066 1.01318Z" fill="#FDFAF9" stroke="#473C39" stroke-width="0.3"/>
<path d="M18.8485 31C19.1734 31.3222 19.7146 31.7349 20.079 32.0175C18.8582 33.2463 17.2759 34.6465 17.2186 36.5099C17.1249 38.2881 18.7489 39.517 20.1023 40.3491C21.9374 41.4774 22.953 43.1048 20.7393 44.6328C19.4503 45.5223 17.7327 45.599 16.6113 46.6468C16.0782 47.1397 15.7645 47.8299 15.7412 48.5603C15.6939 50.6478 17.8807 50.7 18.9679 51.7837C19.8396 52.6522 19.1347 54.1837 18.2833 54.8414C16.9797 55.8488 15.8256 56.1297 14.2145 55.9486C14.7469 55.8996 15.407 55.8571 15.9165 55.7476C16.2958 55.6169 16.5179 55.5298 16.8496 55.2966C17.5368 54.822 18.0064 54.0877 18.1524 53.2586C18.3403 52.1535 17.8408 51.0221 16.5833 51.0299C15.9606 51.0339 15.4553 51.1676 14.8204 51.079C13.1851 50.8503 12.5049 49.2808 13.3913 47.8798C14.3562 46.3969 16.2125 46.3497 17.7077 45.794C19.4065 45.1446 20.059 43.1942 19.2937 41.569C18.4997 39.818 17.0401 39.4073 15.4119 38.7455C14.3648 38.3261 13.3071 37.5284 13.5896 36.2122C14.264 33.5595 18.3492 33.7164 18.8485 31Z" fill="#FDFAF9" stroke="#473C39" stroke-width="0.3"/>
<path d="M55.6827 28.0194C56.6475 27.9328 57.5934 28.1312 58.3934 28.7229C59.063 29.2096 59.5165 29.9619 59.6495 30.8075C60.1577 34.1505 54.787 35.0975 55.3249 38.5478C55.6514 40.6429 57.8066 41.375 59.6172 41.0234C60.2727 41.3129 60.8285 41.5348 61.2955 42.1105C62.8654 44.0677 61.6303 46.9302 59.3757 47.4882C58.1138 47.8004 56.5915 47.4204 55.5565 48.3819C55.1938 48.7232 54.9785 49.206 54.9601 49.7182C54.912 50.9465 55.8684 51.557 56.9246 51.5742C57.4575 51.5059 57.718 51.3733 58.2078 51.1404C57.0124 52.304 55.9536 52.1925 54.6173 51.3654C54.4288 51.2487 54.1697 51.0615 53.9636 51.0827C53.8738 51.1857 53.9039 51.1624 53.9009 51.3478C53.5962 51.291 53.2183 50.7448 53.1013 50.4577C52.4526 48.8544 55.0947 47.9992 56.0594 47.3579C57.3694 46.5387 58.8975 45.4216 58.5142 43.5714C57.9721 40.9507 53.9272 40.9424 54.4773 37.7089C54.79 35.785 56.8172 34.8491 57.3196 33.001C57.9633 30.6337 57.0366 28.8261 54.8677 28.0622L55.6827 28.0194Z" fill="#FDFAF9" stroke="#473C39" stroke-width="0.3"/>
<path d="M16.1573 39C17.2405 39.1524 18.805 40.0386 19.3749 40.9253C19.8451 41.6569 20.1505 42.526 19.9233 43.3725C19.2512 45.8759 16.222 45.3736 14.3151 46.4913C13.5645 46.9332 13.0125 47.5634 12.8093 48.3602C12.6784 48.8733 12.7988 49.4823 13.1161 49.9095C13.7609 50.7776 14.816 51.0174 15.8976 50.9081C16.3295 50.8865 16.7907 50.7906 17.2192 50.8804C18.3415 51.1154 18.6331 52.0941 18.3493 53.0119C18.0713 53.9107 17.4356 54.5486 16.5636 55C16.9106 54.7227 17.0879 54.5638 17.3584 54.2286C17.8124 53.5561 18.1133 52.5407 17.2874 51.9731C16.1907 51.2743 14.6854 51.9291 13.5043 52.082C11.3513 52.3615 9.27931 51.3007 9.02213 49.2042C8.95545 48.6747 9.04008 48.1387 9.26749 47.6484C10.1468 45.7731 12.7762 45.516 14.6356 44.8081C16.3628 44.1503 18.0611 42.9993 17.8463 41.0691C17.7409 40.1224 16.9459 39.528 16.1573 39Z" fill="#FDFAF9" stroke="#473C39" stroke-width="0.3"/>
<path d="M43.4421 18.0061C44.1001 17.9699 44.7563 18.0957 45.3474 18.3711C46.1261 18.7372 46.7734 19.3632 47.0436 20.1533C47.1837 20.5716 47.2066 21.0168 47.111 21.4461C46.6117 23.6903 42.9635 23.6287 41.9636 25.6625C41.7433 26.0586 41.663 26.6783 41.8521 27.0887C42.5563 28.6196 44.4981 27.9834 45.8563 28.1496C46.7836 28.2631 47.4641 28.6486 47.8121 29.5302C48.0898 30.2155 48.0586 30.978 47.7258 31.6411C47.3521 32.3956 46.7087 32.7263 45.9269 33C46.9039 32.3326 47.5249 31.7659 47.249 30.5048C47.0903 29.9949 46.8673 29.6194 46.4645 29.2507C45.2063 28.0988 43.4378 28.6278 41.9512 28.1176C40.8265 27.7318 40.2396 26.4967 40.7071 25.4621C41.158 24.4077 42.2399 23.9516 42.6938 22.9297C43.064 22.0459 42.6198 21.0004 41.7741 20.5338C39.8821 19.4902 38.036 21.1025 36.0567 20.3865L36 20.3654C39.5296 20.379 40.627 18.2392 43.4421 18.0061Z" fill="#FDFAF9" stroke="#473C39" stroke-width="0.3"/>
<path d="M25.0484 12.013C25.879 11.9485 26.2536 12.126 27 12.4863C25.7621 12.5325 24.9351 13.143 24.8677 14.5218C24.7889 15.7311 25.9044 17.0697 25.4582 18.2582C24.9027 19.7379 22.5865 18.9321 22.0646 20.7277C21.5671 22.4388 23.1666 22.7974 23.7507 24.0551C24.1439 24.9015 23.9639 25.6951 23.6768 26.5251C21.9455 27.1525 20.8884 28.1127 21.5456 30.2175C21.3424 30.4383 21.0591 30.8954 20.8038 30.9968C20.7523 31.0173 20.675 30.9336 20.6157 30.8878C20.4241 30.7379 20.2336 30.5863 20.0442 30.4331C19.5919 30.0651 19.0274 29.4874 19.0015 28.8628C18.9294 27.124 21.4091 26.8631 22.1347 25.9117C22.9918 24.788 21.1152 23.9213 20.6102 23.1853C20.2602 22.6752 20.0938 22.293 20.0142 21.6687C19.8901 20.7331 20.1361 19.7853 20.6952 19.0433C21.2034 18.3649 22.0235 17.8201 22.867 17.8183C23.3207 17.8173 24.2493 18.0516 24.5145 17.5173C25.0658 16.3456 23.9163 15.2312 23.7135 14.0945C23.4984 12.8895 23.8964 12.2743 25.0484 12.013Z" fill="#FDFAF9" stroke="#473C39" stroke-width="0.3"/>
<path d="M44.939 39C44.9729 39.3915 44.8164 39.8553 45.0098 40.347C45.7849 42.3197 49.0037 41.9646 49.8879 43.8185C50.0625 44.1855 50.0216 44.7314 49.8448 45.0992C49.4179 45.9887 48.5575 46.2906 47.6909 46.6226C46.688 46.9722 46.08 47.2931 45.3144 48C44.8172 47.209 44.4549 46.3836 44.2457 45.4789C43.8288 43.6753 43.8702 40.6252 44.939 39Z" fill="#FDFAF9" stroke="#473C39" stroke-width="0.3"/>
<path d="M22.9732 32C23.0505 32.1016 23.3683 33.932 23.425 34.2076C23.607 35.1051 23.8271 35.9939 24.0848 36.8718C24.3538 37.7884 24.7062 38.7279 25.0972 39.613C25.8356 41.284 27.158 42.977 26.9845 44.8963C26.8603 46.2683 25.414 46.9138 25.1528 48.0658C24.8997 49.1814 26.2682 50.0642 26.8791 51C26.2945 50.447 25.7508 50.2055 25.0361 49.8834C24.4699 49.6401 23.6228 49.1992 23.3057 48.6327C22.6303 47.3872 24.3809 46.4528 25.0514 45.6415C26.1728 44.2849 25.7873 42.7619 24.6775 41.5605C23.6698 40.4699 22.2864 39.8071 21.4933 38.4921C20.8229 37.3808 20.8434 36.0597 21.5086 34.9442C22.1546 33.9002 22.6702 33.236 22.9732 32Z" fill="#FDFAF9" stroke="#473C39" stroke-width="0.3"/>
<path d="M27.2652 43C27.7313 43.4206 28.0146 45.8772 28.1221 46.6162C28.5312 49.4307 29.0744 52.3114 28.9915 55.167C28.9595 56.2718 28.6251 57.4557 28.161 58.4389C28.1924 57.6843 28.0522 56.9673 27.5895 56.3387C27.5215 56.2459 27.5011 56.2598 27.4208 56.2567C27.3567 56.3564 27.3899 56.3577 27.4052 56.4811C27.5722 57.8353 27.0892 58.9458 26.2354 59.92L26.1218 59.9998C25.5949 60.0149 25.2149 59.2987 25.0969 58.8237C24.4974 56.4116 26.8372 55.5643 27.7956 53.8921C28.5363 52.6 27.8555 50.9369 27.0809 49.8549C26.7412 49.3738 26.0904 48.8928 25.9508 48.2711C25.7219 47.2517 26.7584 46.7163 27.1837 45.9077C27.7346 44.8612 27.5141 44.0673 27.2652 43Z" fill="#FDFAF9" stroke="#473C39" stroke-width="0.3"/>
<path d="M57.8789 26.5084C57.1985 23.2663 60.0899 23.2108 59.6842 20.2581C59.5916 19.5836 59.1073 18.841 58.5264 18.4956C57.0092 17.6102 55.5792 17.799 55.1164 15.7004C54.9798 15.0809 54.969 14.6489 55.055 14C56.196 18.3226 60.7957 15.9685 61.8814 20.0031C62.8355 23.5493 57.6328 24.2071 60.5311 27.9858L60.4147 28C59.6457 27.2385 58.9057 26.8522 57.8789 26.5084Z" fill="#FDFAF9" stroke="#473C39" stroke-width="0.3"/>
<path d="M29.8955 8.01707C29.9814 8.00688 30.0677 8.00143 30.1541 8.00046C31.1387 7.98626 32.2374 8.29768 32.9253 9.04225C35.0646 11.358 32.6594 13.8955 32.6759 16.3715C32.6839 17.5637 33.2243 18.2472 34 19C33.8901 18.9557 33.7811 18.9093 33.6729 18.8609C32.7729 18.4523 32.2472 17.7933 31.9035 16.8733C31.2047 14.8227 32.9755 12.9209 31.4364 10.8067C30.0755 8.93721 27.325 8.8788 27.0263 11.5235C26.9239 10.741 27.1227 9.94835 27.5811 9.31259C28.1651 8.51337 28.9575 8.15565 29.8955 8.01707Z" fill="#FDFAF9" stroke="#473C39" stroke-width="0.3"/>
<path d="M21.0568 46L21.0707 46.0134C21.1224 46.2214 20.0938 47.6128 20.7237 48.9682C21.7895 51.2617 24.537 50.5537 25.6452 52.3007C27.1682 54.7022 23.3267 56.4285 22.813 58.4224C22.4089 59.9668 23.885 60.8491 25.2443 61.1087C24.8531 61.4133 24.4679 61.6461 24.0467 61.9103C24.002 61.9431 23.9234 62.0036 23.867 61.9998C23.1738 61.9503 22.2319 61.5205 21.7359 61.0839C21.1752 60.6155 20.7555 59.9878 20.7276 59.2564C20.6186 56.4079 24.7206 56.4372 24.5337 53.4892C24.3485 50.5664 20.1691 51.0692 20.0033 48.2002C19.9538 47.3439 20.4654 46.6007 21.0568 46Z" fill="#FDFAF9" stroke="#473C39" stroke-width="0.3"/>
<path d="M14.491 18C14.5585 18.0774 14.8255 18.7727 14.8816 18.9116C14.7262 19.2312 14.5667 19.5463 14.435 19.8796C13.9489 21.11 14.1852 22.4875 14.8934 23.5355C15.7578 24.8147 16.361 25.8012 15.7538 27.433C14.3036 28.0156 13.5324 28.1766 12.0789 29C11.3642 28.7042 11.0603 28.4871 10.545 27.8557C10.3018 27.5054 10.1632 27.1567 10 26.7528C10.0688 26.8453 10.1391 26.9363 10.2111 27.0255C11.1555 28.1958 12.6843 28.2384 13.6513 27.112C13.9036 26.8156 14.0824 26.4467 14.1691 26.0436C14.5548 24.199 12.4192 23.3766 12.4555 21.5961C12.4843 20.1854 13.6914 18.9256 14.491 18Z" fill="#FDFAF9" stroke="#473C39" stroke-width="0.3"/>
<path d="M54.6109 47L54.6624 47.0186C54.5325 47.1586 54.1611 47.33 53.9793 47.4332C53.2328 47.8569 52.1699 48.6411 52.2167 49.7018C52.2644 50.7875 53.6273 51.4538 54.272 52.1644C55.1911 53.177 55.272 53.9655 54.3309 55C54.3638 54.0324 53.929 53.8413 53.1497 53.6946C52.9458 53.6569 52.7328 53.6221 52.5358 53.5495C52.2817 53.4549 52.037 53.3117 51.8188 53.1393C51.3595 52.7762 50.9824 52.2891 50.5494 51.8884C50.171 51.5388 49.7173 51.2637 49.361 50.893C49.248 50.7755 49.145 50.637 49.0779 50.4818C48.9761 50.2454 48.9748 49.9526 49.0696 49.7124C49.4043 48.868 53.6563 47.4585 54.6109 47Z" fill="#FDFAF9" stroke="#473C39" stroke-width="0.3"/>
<path d="M14.8824 19C15.1897 19.222 15.6251 20.0319 15.9821 20.3295C17.8028 21.8474 20.0008 23.3918 18.5039 25.6574C18.2443 26.0504 17.8673 26.3004 17.4093 26.5672C17.0165 26.7412 16.7151 26.8535 16.3029 27C17.9317 23.4251 11.7947 23.2537 14.8824 19Z" fill="#FDFAF9" stroke="#473C39" stroke-width="0.3"/>
<path d="M38.2507 2.00749C38.5073 1.99185 38.7648 2.0007 39.0187 2.03394C39.9291 2.13974 40.7483 2.56474 41.2832 3.20847C42.2743 4.3838 42.0232 5.67527 41.7847 7C41.3842 5.89013 41.0877 5.23886 40.0436 4.47813C39.5369 4.14212 38.9625 3.89001 38.3493 3.73453C36.7524 3.32447 35.4287 3.61208 34 4.28094C35.3933 3.19611 36.284 2.19817 38.2507 2.00749Z" fill="#FDFAF9" stroke="#473C39" stroke-width="0.3"/>
<path d="M24.6414 11.0047C25.1915 10.975 25.5226 11.0886 26 11.2949L25.829 11.3029C23.2987 11.403 23.737 13.6481 22.0085 14.699C20.7144 15.4938 18.9919 15.3234 17.6859 16.1414C15.4595 17.5356 15.4259 19.8728 16.769 21.8097C16.8342 21.9057 16.8225 21.8918 16.8652 22C16.6745 21.8686 16.5234 21.6966 16.3699 21.5418C15.0373 20.2315 14.7666 19.818 15.1748 18.1244C15.9118 15.0673 18.5682 15.4671 20.9321 14.2723C22.484 13.4879 22.5248 11.3713 24.6414 11.0047Z" fill="#FDFAF9" stroke="#473C39" stroke-width="0.3"/>
<path d="M23.052 15C23.1565 15.4181 23.2514 15.6258 23.4203 15.9919C23.7002 16.5983 24.2088 17.4465 23.9078 18.1247C23.6711 18.6578 22.7893 18.3898 22.3643 18.4067C21.437 18.4671 20.547 19.1131 20.0585 19.9423C19.4962 20.9044 19.4158 21.8295 19.6432 22.9047L19.6637 23C19.1083 21.7726 18.754 20.6644 19.2062 19.2988C19.4821 18.4421 20.0728 17.7418 20.8429 17.3583C22.0673 16.736 23.1546 17.4451 22.9644 15.3532C22.9843 15.1754 22.9828 15.1594 23.052 15Z" fill="#FDFAF9" stroke="#473C39" stroke-width="0.3"/>
<path d="M34 4.74293C35.3168 4.21088 36.3628 3.85417 37.8823 4.0583C39.1979 4.23501 40.4115 4.79208 41.21 5.69633C41.7538 6.31233 42.0332 7.08661 42.2657 7.82392C42.2888 7.89656 42.2133 8.1229 42.2019 8.21687C42.0751 9.25036 42.2479 10.1574 43 10.9897L42.8756 11C41.3501 9.19664 41.9379 7.62636 39.5632 6.11726C37.8373 5.02067 36.1633 4.56775 34 4.74293Z" fill="#FDFAF9" stroke="#473C39" stroke-width="0.3"/>
<path d="M51.7002 6.00942C53.6474 5.87455 54.6987 7.20652 54.781 8.80282C54.8242 9.64901 54.7178 10.1675 55 11C54.1729 10.0907 54.29 9.37665 53.4322 8.49208C51.9308 7.13921 49.7311 7.3805 48 8.20505C49.0267 7.25875 50.1928 6.2098 51.7002 6.00942Z" fill="#FDFAF9" stroke="#473C39" stroke-width="0.3"/>
<path d="M45.7216 51.0138C46.6678 50.9482 47.8006 51.1246 48.68 51.3696C47.672 52.7834 48.996 53.7554 51 53.8L50.4387 53.9256C47.8919 54.34 45.1851 52.9732 45 51.0813C45.2214 51.0467 45.493 51.0316 45.7216 51.0138Z" fill="#FDFAF9" stroke="#473C39" stroke-width="0.3"/>
<path d="M25.9404 18C26.0447 18.1273 25.9811 18.4043 25.9781 18.5506C25.9509 19.8958 24.1231 19.961 23.6751 20.9532C23.0519 22.4648 25.2091 23.1362 25.7222 24.259C26.2026 25.3103 24.8785 25.758 24.041 26L23.9998 25.9507C24.2932 24.688 24.4185 23.9035 23.2799 22.8767C22.6938 22.3482 21.7391 21.6509 22.0667 20.794C22.8498 18.7458 25.2751 20.1949 25.9404 18Z" fill="#FDFAF9" stroke="#473C39" stroke-width="0.3"/>
<path d="M18.5978 46L18.6128 46.0069L18.6237 46.0432C18.5104 46.1026 18.3981 46.1635 18.2867 46.2257C15.9719 47.5232 16.366 49.2878 18.7857 50.0668C19.3878 50.2893 20.4973 50.6579 20.7964 51.217C21.8042 53.1007 18.7635 53.8285 18.3648 55.507L18.3521 55.5632C18.3304 55.7093 18.3059 55.8547 18.278 56C18.2689 55.9866 18.2598 55.9733 18.2506 55.9596C17.9521 54.4809 20.2011 53.5508 19.7198 52.0502C19.3633 50.9388 18.232 50.7636 17.3002 50.2861C16.1437 49.6938 15.6941 48.7872 16.2153 47.6758C16.6811 46.7267 17.6001 46.3678 18.5978 46Z" fill="#FDFAF9" stroke="#473C39" stroke-width="0.3"/>
<path d="M50.5789 8.01813C52.2205 7.85433 53.5593 8.81233 54.0223 10.414C54.0974 10.6725 54.3061 11.1092 54.4554 11.3228C54.54 11.4434 54.9909 11.8325 55 11.945C54.2675 12.1837 53.8261 11.6015 53.4503 11.0437C52.2102 9.0032 50.1966 8.33604 48 8.99103C48.7828 8.41958 49.6346 8.11587 50.5789 8.01813Z" fill="#FDFAF9" stroke="#473C39" stroke-width="0.3"/>
<path d="M21.9702 12C21.999 12.0312 21.9824 12.0078 22 12.0846C20.9743 13.8876 20.3119 13.9804 18.6158 14.5589C17.4171 14.9677 16.609 15.6963 16.0222 16.9994L16.0189 17L16 16.9559C17.2572 12.2304 19.4615 14.1313 21.9702 12Z" fill="#FDFAF9" stroke="#473C39" stroke-width="0.3"/>
<path d="M59 26C60.4591 26.697 61.4446 27.8796 62 30C61.8818 29.9418 61.7648 29.879 61.6485 29.8119C60.3766 29.068 59.5356 27.8334 59 26Z" fill="#FDFAF9" stroke="#473C39" stroke-width="0.3"/>
<path d="M49.4132 32.0034C49.941 31.9662 50.0798 32.2361 49.9597 32.6372C49.79 33.2051 48.9637 33.4905 48.393 33.7606L48 34C48.2956 33.2924 48.5771 32.3667 49.4132 32.0034Z" fill="#FDFAF9" stroke="#473C39" stroke-width="0.3"/>
<path d="M58.5163 37C58.5407 37.1321 58.4816 37.3015 58.4547 37.4388C58.0612 39.4395 59.9692 41.1585 62 40.0614C61.7949 40.2487 61.6078 40.3722 61.3791 40.5311C60.924 40.7902 60.7257 40.8723 60.2136 41C59.9015 40.8698 59.6506 40.7582 59.3586 40.5919C57.9135 39.7695 57.6022 38.3378 58.5163 37Z" fill="#FDFAF9" stroke="#473C39" stroke-width="0.3"/>
<path d="M22.9216 27L22.9849 27.0013L23 27.0684C22.4614 28.2562 21.9611 28.9729 21.155 30C20.9178 29.6867 20.9847 28.7406 21.1433 28.3957C21.512 27.5937 22.1377 27.306 22.9216 27Z" fill="#FDFAF9" stroke="#473C39" stroke-width="0.3"/>
<path d="M26.7534 57C27.0203 57.3374 27.0655 58.5775 26.9133 59.0439C26.7441 59.5624 26.5906 59.7643 26.2534 59.9723C26.1576 59.995 26.1184 59.9977 26.0209 60L26 59.9662L26.1756 59.653C26.5814 58.9199 26.8112 57.958 26.7534 57Z" fill="#FDFAF9" stroke="#473C39" stroke-width="0.3"/>
<path d="M20.831 31C21.4794 31.7321 22.503 32.6733 21.7133 33.5269C21.5608 33.6918 21.2418 33.9482 20.9467 34L21.0021 33.9518C22.2389 33.093 21.1095 32.1485 20 31.5735C20.2844 31.3939 20.5619 31.1907 20.831 31Z" fill="#FDFAF9" stroke="#473C39" stroke-width="0.3"/>
<path d="M45.7212 49C45.8354 49.036 46.1465 49.2139 46.2538 49.2719C46.7817 49.5553 47.367 49.7705 48 50L47.3463 49.9666C46.4925 49.9102 45.844 49.9404 45 49.9775C45.0837 49.5519 45.2335 49.3563 45.7212 49Z" fill="#FDFAF9" stroke="#473C39" stroke-width="0.3"/>
<path d="M62.0756 28C62.964 29.1402 63.9279 29.7373 65 28.5403C64.3592 29.9091 63.8209 30.1153 62.6879 29.9526C62.5029 29.188 62.358 28.7307 62 28.0826L62.0756 28Z" fill="#FDFAF9" stroke="#473C39" stroke-width="0.3"/>
<path d="M15.993 28L16 28.0325C15.9538 28.1439 15.7224 28.3246 15.6048 28.4036C14.7628 28.9691 14.0246 29.057 13.0169 28.9723L13 28.9614L13.0112 28.9284C14.0423 28.4816 14.9025 28.2857 15.993 28Z" fill="#FDFAF9" stroke="#473C39" stroke-width="0.3"/>
<path d="M26.975 60L27 60.0364C26.9571 60.2139 26.6335 60.6556 26.5089 60.7954C25.776 61.6168 25.0297 61.9891 24.0281 62L24 61.9659C24.0462 61.8783 24.9559 61.1342 25.1126 60.9894C26.0074 60.8994 26.3099 60.6933 26.975 60Z" fill="#FDFAF9" stroke="#473C39" stroke-width="0.3"/>
<path d="M49 34C48.6608 34.4729 48.2328 34.9881 47.8744 35.4703C47.5043 36.0005 47.3121 36.3793 47 37C47.2569 36.0266 47.4837 35.0736 47.7212 34.0864C47.7155 34.2451 47.7146 34.273 47.7248 34.4387C47.9699 35.0061 48.6989 34.245 49 34Z" fill="#FDFAF9" stroke="#473C39" stroke-width="0.3"/>
<path d="M20 25C20.3882 25.047 21.3066 25.2265 21.5725 25.3105C22.2753 25.5324 22.0827 25.7025 21.2064 25.8639C20.9257 25.9099 20.581 25.9572 20.2872 26C20.3458 25.9669 20.4003 25.9333 20.4503 25.8993C20.9705 25.5475 20.5884 25.3185 20 25Z" fill="#FDFAF9" stroke="#473C39" stroke-width="0.3"/>
<path d="M15 18C15 18.1221 15 18.907 15 19V18.9389C15 18.8012 15 18.6527 15 18.5153C15 18.3695 15 18.1597 15 18Z" fill="#FDFAF9" stroke="#473C39" stroke-width="0.3"/>
<path d="M49 50C49 50.0874 49 50.563 49 50.8745V50.9658V51V50.8414V50.6089C49 50.3295 49 50.2386 49 50Z" fill="#FDFAF9" stroke="#473C39" stroke-width="0.3"/>
<path d="M25.8467 60.0201C26.3069 60.1028 26.5378 60.0546 27 60C26.6761 60.2626 26.4439 60.4073 26.1044 60.619C25.8163 60.7537 25.3116 60.8981 25 61C25.2632 60.7227 25.5885 60.3219 25.8467 60.0201Z" fill="#FDFAF9" stroke="#473C39" stroke-width="0.3"/>
<path d="M43.1306 11C43.4243 11.3493 43.6518 11.6211 44 11.9057L43.9403 12C43.556 11.702 43.2949 11.4103 43 11.0144L43.1306 11Z" fill="#FDFAF9" stroke="#473C39" stroke-width="0.3"/>
<path d="M26 10C26 10.1909 26 10.6343 26 11C26 10.8562 26 10.2958 26 10Z" fill="#FDFAF9" stroke="#473C39" stroke-width="0.3"/>
<path d="M23 15C23 14.7044 23 14.2764 23 14C23 14.1495 23 14.4163 23 14.5927C23 14.7765 23 14.7951 23 15Z" fill="#FDFAF9" stroke="#473C39" stroke-width="0.3"/>
</g>
<defs>
<clipPath id="clip0_4324_6">
<rect width="78" height="78" rx="39" fill="white"/>
</clipPath>
</defs>
</svg>
