<svg width="76" height="78" viewBox="0 0 76 78" fill="none" xmlns="http://www.w3.org/2000/svg">
<g clip-path="url(#clip0_4318_56)">
<path d="M38.0277 0.0284272C38.6094 -0.0362618 39.1976 0.00968038 39.763 0.163937C41.4038 0.617649 42.597 1.79663 43.0292 3.47807C43.3493 4.72119 43.5813 6.56672 45.0723 6.91496C46.7328 7.30285 48.0566 5.62938 49.325 4.83378C51.4467 3.41499 54.0214 4.34035 54.6738 6.8651C54.9851 8.06832 54.2896 9.78373 54.8901 10.7345C55.0756 11.0334 55.3777 11.237 55.7206 11.294C56.5059 11.4326 57.4762 10.9359 57.9281 10.267C58.1035 10.0076 58.3488 9.32131 58.53 9.18511L58.5709 9.24722C58.6412 11.1079 56.8897 12.5696 55.0871 12.1565C56.9349 13.1855 56.3296 13.6276 56.5986 15.2251C56.9112 16.0879 58.6755 16.5483 59.3478 16.8264C61.6999 17.7998 62.5159 20.8376 60.8148 22.8013C60.3278 23.3639 59.9092 23.8986 59.568 24.5529C58.6025 26.4047 61.014 29.4062 62.9524 28.7133C63.441 28.5375 63.681 27.9514 63.8726 27.4625L63.9575 27.4937C64.0006 27.5769 64.0089 27.6588 63.9914 27.7506C63.6779 29.3841 62.6214 30.0474 61.0712 29.8527C61.429 31.9524 60.293 33.2125 58.8685 34.5296C58.0763 35.2625 57.3411 36.0971 57.302 37.2307C57.2242 39.482 59.8894 40.8675 61.2954 38.8248C61.4005 38.6718 61.4567 38.4644 61.5842 38.3298L61.6582 38.3514C61.721 38.541 61.6212 38.7586 61.5288 38.9358C61.0097 39.9316 60.2741 40.417 59.2546 40.7583C61.5073 41.6043 62.3593 43.889 61.0347 45.9875C59.8054 47.9354 57.9585 47.6459 56.0139 47.8888C55.0374 48.011 53.9634 49.0605 54.3129 50.1418C54.8009 51.6588 56.5647 51.6606 57.6071 50.7417C57.7562 50.6102 58.2002 50.0854 58.3629 50.2353C58.3559 50.2724 58.3515 50.3136 58.33 50.3463C56.7881 52.673 55.2365 52.5755 53.0647 51.2302C53.3843 51.6507 53.8283 52.0055 54.1748 52.4086C55.3012 53.7184 54.7754 54.7439 53.4991 55.5124C53.5404 55.4256 53.5809 55.3383 53.6204 55.2507C54.2139 53.9188 52.4557 54.028 51.6253 53.6742C55.055 57.5492 56.9785 63.2379 58.2486 68.2045C58.3115 68.4506 58.4878 69.0447 58.4363 69.2621L58.3603 69.2854C58.2548 69.1512 57.9914 67.9007 57.9154 67.6091C57.5179 66.0916 57.0603 64.5911 56.5432 63.1113C54.9411 58.5191 52.1823 53.0751 47.6684 50.8844C47.6038 50.9971 47.547 51.1148 47.5 51.2365C46.8805 52.8103 48.356 53.9475 49.7796 53.786C49.9278 53.769 50.2386 53.6773 50.3578 53.7248L50.3411 53.803C50.159 54.0137 49.9484 54.075 49.7031 54.177C47.5532 55.0717 44.965 53.7677 44.1486 51.6074C44.0056 51.2298 43.9419 50.9 43.8799 50.4925C42.976 50.7609 42.1556 51.1461 41.4266 51.7599C37.5771 55.0029 35.9593 63.2911 35.2206 68.065C35.1539 68.4962 34.8959 70.9115 34.7466 71.1021L34.6866 71.0762C34.6811 71.0592 34.6755 71.0426 34.6701 71.026C35.2039 65.9073 36.4117 59.4411 38.7584 54.959C40.2286 52.1509 41.6742 50.965 43.8896 50.2791C43.9401 49.4998 44.1217 49.0247 44.5341 48.3792C44.5139 48.3474 44.4937 48.3152 44.4739 48.283C42.91 45.7191 42.9017 42.729 43.5458 39.869C42.229 41.8468 40.1926 43.961 38.3201 45.3854C36.1802 47.0272 32.8264 49.0314 30.1721 47.3583C28.8664 46.5351 27.6326 44.777 26.6629 43.5334C26.9184 44.5622 27.1747 46.3271 27.3401 47.407C27.7071 49.9459 28.1777 52.5329 28.1046 55.1053C28.0603 56.6684 27.6882 57.7304 27.0254 59.0819C26.5794 59.9914 26.4853 60.6029 25.6521 61.3138C24.6327 62.1839 23.8494 62.391 22.5585 62.3123C20.6589 63.7363 18.5005 64.8256 16.9061 66.7309C14.768 69.2858 14.6351 72.3918 15.2254 75.5507C15.3104 76.0057 15.4114 76.4709 15.5154 76.9232C15.5911 77.2529 15.7276 77.6162 15.7565 77.9494L15.6907 78L15.6126 77.9481C15.4617 77.6582 15.3449 76.9975 15.2632 76.6431C14.7948 74.6134 14.5387 72.615 14.9132 70.5402C15.6827 66.2782 19.0809 64.4852 22.2723 62.2733C20.6806 61.8501 19.1406 60.8213 19.1861 58.9454C19.2548 56.11 22.8875 56.0211 22.9765 53.2895C23.0569 50.8186 20.551 50.6795 19.2564 49.2551C17.6501 47.4871 18.706 45.724 20.1501 44.3364C19.06 44.8978 16.6854 45.8614 16.4156 47.2701C15.9895 49.4949 19.5619 49.4202 20.3208 50.9014C21.4038 53.0148 18.3774 54.0101 17.9439 55.7204C17.6193 57.0249 18.444 57.423 18.9588 58.2632C18.8597 58.2811 18.7555 58.2212 18.673 58.1594C17.4833 57.2697 17.0549 55.8828 17.8962 54.5958C16.7559 55.4788 15.4697 55.9235 14.0214 55.7576C13.7327 55.7244 12.4078 55.5428 12.3815 55.1652C12.5201 55.1241 12.6251 55.1719 12.7673 55.2082C14.2882 55.5942 16.2862 55.0449 16.7486 53.3476C16.8318 53.0349 16.7644 52.4712 16.5577 52.2189C15.7692 51.2647 14.1354 51.9925 13.1566 52.1589C8.46849 52.9548 6.59696 46.8281 11.3126 45.1966C12.4064 44.8186 14.3144 44.2746 15.1822 43.5902C13.3553 44.28 11.4898 43.9596 10.5723 42.0194C10.4899 41.8454 10.318 41.4267 10.3861 41.2532C10.6614 41.4486 10.9894 42.0651 11.3166 42.3429C13.2784 44.0085 16.4122 41.8414 14.4939 39.6032C13.4439 38.5727 11.7646 38.362 10.4975 37.6989C6.57333 35.6457 7.66533 31.1857 11.0647 29.1189C9.88983 28.6627 9.1644 28.002 8.76918 26.7535C8.69968 26.5341 8.54284 25.8442 8.63589 25.6624L8.70184 25.6555C8.84033 25.7909 8.99389 26.5588 9.35162 26.9429C9.77791 27.4644 10.2763 27.6687 10.9272 27.7404C11.8695 27.8439 13.1447 27.0783 13.3524 26.1064C13.7338 24.3209 11.2857 23.5137 11.4659 21.6579C11.6024 20.2518 12.878 18.9588 13.853 18.0741C12.8423 14.8123 14.5544 12.2398 17.7345 11.4402C18.6144 11.2189 19.4661 11.1312 20.2949 10.7323C21.22 10.2871 21.6893 9.41628 22.5488 8.91149C23.0217 8.63945 23.5324 8.69292 24.0334 8.85176C23.5071 7.17044 23.6046 5.54075 24.6308 4.07351C25.6391 2.63146 27.4231 1.95262 29.0717 2.61562C29.6818 2.86096 30.2366 3.31174 30.8502 3.50635C31.2821 3.64607 31.7461 3.64439 32.177 3.50159C34.2789 2.80977 35.1623 0.458698 38.0277 0.0284272Z" fill="#473C39" stroke="#473C39" stroke-width="0.3"/>
<path d="M33.1075 5.00819C33.7679 4.94561 34.7723 5.25295 35.3666 5.54123C36.2495 5.96825 37.0171 6.60961 37.6028 7.40948C38.0966 8.07735 38.4937 8.8149 38.7813 9.59917C39.3929 11.2232 39.6299 13.1359 40.99 14.3124C42.7713 15.8534 44.7822 14.7935 46.5143 16.1975C47.1646 16.7246 47.4522 17.1963 47.7696 17.952C48.9411 20.7393 46.3195 22.8381 46.618 25.28C46.9645 28.1146 50.7786 28.2587 52.4949 29.6575C53.2609 30.2817 53.92 31.2915 53.99 32.3067C54.1892 35.205 51.3758 36.2837 49.8931 38.1663C49.4489 38.7306 49.124 39.4628 49.2392 40.1835C49.4833 41.715 51.137 41.6807 52.1576 42.5176C52.8884 43.1167 53.4408 44.1638 53.5106 45.093C53.7675 47.9695 50.8816 48.0645 49.1069 49.1355C48.8092 49.3151 47.6386 50.6521 47.3695 51C46.1189 50.5247 45.363 49.8079 44.5742 48.7177C45.9769 47.2169 47.1686 47.5279 48.581 46.3454C48.9969 45.9969 49.3571 45.2771 49.3381 44.713C49.2194 42.3001 45.9387 42.4006 44.7043 40.9622C43.3975 39.4398 44.9621 37.3441 46.1057 36.3099C47.0155 35.4871 48.0299 34.8379 48.9574 34.0513C49.9608 33.2001 50.3148 31.6662 49.7559 30.4576C48.5638 27.8586 44.9238 28.7354 43.1455 26.9342C42.898 26.6835 42.7181 26.1491 42.7717 25.792C43.0616 24.0556 45.3837 23.6732 46.5481 22.6997C47.2781 22.0892 47.6611 21.4725 47.7692 20.5459C47.8738 19.6005 47.6096 18.651 47.0335 17.9041C45.5442 15.9656 43.3086 16.378 41.2499 16.1824C39.3819 16.0753 37.7017 14.4705 37.3671 12.597C36.8746 9.84162 36.2118 7.02032 32.9733 6.64871C32.6285 6.60917 31.4629 6.54712 31.1851 6.77202L31.1965 6.83389C31.4356 6.95206 31.6474 6.92245 31.8902 6.98309C32.3014 7.08574 32.7628 7.24717 33.1319 7.45753C33.8098 7.83499 34.3508 8.42591 34.6748 9.1429C35.9055 11.9015 33.7363 13.8564 34.3194 16.4233C34.4733 17.1004 35.0263 17.771 35.6366 18.0898C37.1934 18.9033 38.5245 18.4669 40.0591 17.9988C38.7043 18.7232 37.6362 19.4759 36.0778 19.7691C34.5326 20.0598 33.2442 19.5096 32.6001 17.9783C31.5587 15.3239 33.9342 13.1395 33.527 10.4146C33.0102 6.95711 28.1148 6.07835 26.2781 8.86445C25.7566 9.66937 25.5656 10.6521 25.7465 11.6C25.8161 11.9497 26.094 13.0502 26.3631 13.2335L26.4306 13.1989C26.4211 12.7292 25.9612 12.2372 26.0855 11.3668C26.1442 10.715 26.3792 10.0936 26.9113 9.66849C28.1359 8.69017 29.6992 9.45059 30.52 10.5315C31.7505 12.1517 31.2049 13.6172 30.9245 15.4347C30.7668 16.4577 31.0496 17.6421 31.7057 18.437C32.5557 19.4669 33.0439 19.5507 34.184 19.9538C35.0948 20.3464 35.7109 20.5473 36.737 20.411C38.1767 20.2198 39.9856 19.4669 41.1338 20.8438C41.3259 21.0742 41.5031 21.5341 41.537 21.8411C41.7393 23.6706 39.3767 24.3552 39.2852 26.1721C39.2434 26.8037 39.432 27.3948 39.819 27.8793C40.6619 28.9347 42.0489 28.8617 43.2788 28.9633C44.1143 29.0695 44.875 29.3347 45.433 30.0056C46.5872 31.3941 46.0262 33.0816 44.3789 33.6338C44.2158 33.6885 43.766 33.7883 43.6657 33.873L43.6947 33.9567C43.7624 33.9781 43.7739 33.9804 43.8434 33.9802C45.046 33.9758 45.6828 33.7033 46.5244 32.8682C46.3502 33.3379 46.1831 33.8242 46.0191 34.2966C44.2738 39.3287 40.8981 43.8132 36.4349 46.6141C34.8989 47.5778 33.0509 48.4638 31.1966 47.9853C30.5803 47.8241 30.0047 47.5302 29.5079 47.1233C27.9857 45.8893 26.1122 42.997 25.0673 41.2967C23.65 38.9906 23.0656 36.2495 22.5392 33.6215C22.013 30.9947 22.0122 29.4506 22.6508 26.8514C23.4309 26.6886 24.6251 26.1555 24.5973 25.1829C24.6134 24.2631 23.6342 23.7283 23.1398 23.1583C21.7079 21.5077 23.0914 20.9815 24.2279 20.1036C24.7203 19.6138 24.7918 18.7514 24.6788 18.1018C24.4374 16.7146 23.1224 15.0263 24.3143 13.7262C24.8125 13.1827 25.6198 13.1943 26.2928 13.2233C25.1399 12.0165 22.8014 11.8019 22.0944 13.6318C21.8135 14.3591 22.0752 15.0032 22.0048 15.7351C21.9421 16.3859 20.7908 16.4523 20.2801 16.6142C19.9339 16.7223 19.6074 16.888 19.3138 17.1049C18.704 17.5537 18.2507 18.1905 18.0199 18.9222C16.9345 22.2642 20.2356 23.7135 19.8219 26.0705C19.6789 26.8849 18.9909 27.0118 18.4253 27.4366C18.1248 27.6622 17.8705 27.954 17.7183 28.3045C17.2651 29.3482 18.112 29.7394 17.9694 30.5605C17.7466 31.8436 15.2687 32.8495 14.2774 33.5251C13.5163 34.0437 12.8151 34.7342 12.648 35.6928C12.2559 37.942 15.257 38.4414 16.2622 39.9512C16.5914 40.4455 16.7132 41.0266 16.5987 41.6146C16.4519 42.3695 15.9519 43.0024 15.3404 43.4278C14.5866 43.9522 13.5603 44.1602 12.6673 43.9711C11.7967 43.7871 11.166 43.2757 10.6868 42.5248C11.2139 42.9583 11.5158 43.1861 12.174 43.3657C13.3258 43.6795 14.8479 42.9259 15.0242 41.661C15.4048 38.9304 11.8564 38.6642 10.2023 37.6965C7.377 36.1739 7.42765 32.9175 9.45833 30.7019C9.97325 30.1401 10.429 29.8117 11.0562 29.3955C12.7044 29.7044 14.257 29.3676 15.192 27.8398C16.2585 27.3914 17.0433 26.9188 17.4127 25.7301C18.2876 22.9144 15.0045 21.2717 15.5859 18.4363C15.917 16.8215 16.9782 15.8894 18.5045 15.4813C19.5032 15.2095 20.4851 15.1147 21.3169 14.4295C22.3916 13.544 22.3985 12.1634 23.5242 11.3812C24.2369 10.8861 24.8266 11.3816 25.152 11.1579C25.0424 10.6891 23.8147 10.3619 23.3689 10.4331C22.0339 10.6464 21.5896 11.9015 20.4547 12.5698C18.9879 13.4334 17.1795 13.1195 15.9419 14.4095C14.9384 15.4871 14.6801 16.8375 13.7743 18.0266C12.9556 14.8861 14.4447 12.6003 17.4792 11.7566C18.4624 11.4833 19.383 11.4117 20.3121 10.9242C21.6254 10.2352 22.1894 8.40969 23.9074 9.19422C24.0073 9.47071 24.0686 9.6504 24.2262 9.89622C24.4912 10.3094 24.9523 10.3997 25.0907 10.8552C25.1128 10.928 25.1014 10.9065 25.1692 10.9468C25.1431 10.5787 25.0894 10.231 25.0529 9.87158C24.9358 8.7173 25.529 7.22554 26.2466 6.34784C26.5751 5.94671 26.9768 5.61481 27.4291 5.3705C28.9556 4.55458 29.1869 5.82038 30.4005 5.68972C31.2725 5.59593 32.0223 5.11058 33.1075 5.00819Z" fill="#FDFAF9" stroke="#473C39" stroke-width="0.3"/>
<path d="M28.4159 4C29.8499 4.06632 30.4957 5.11128 31.7871 5.39585C32.5395 5.53695 33.3106 5.21516 34.0409 5.11137C36.5178 4.759 39.5618 6.42622 40.418 8.80544C40.7895 9.83721 40.8674 10.5516 41.4957 11.5216C43.2929 14.3335 46.2205 13.3822 48.9841 13.8887C50.6239 14.1894 52.3207 15.4491 52.2005 17.2919C52.0861 19.0413 50.2021 20.1519 49.1662 21.3973C48.0155 22.7805 47.8668 24.401 48.8841 25.9108C49.6561 27.119 51.0115 27.9368 52.4359 28.1444C53.9893 28.3708 55.4065 28.4409 56.3338 29.9311C56.6792 30.4894 56.8674 31.1303 56.878 31.7861C56.9417 34.6128 54.283 35.4195 53.6569 37.7683C53.2693 39.1579 54.145 40.4949 55.2779 41.227C56.5275 42.0336 58.4262 43.0701 57.9144 44.9145C57.2523 47.3001 53.5363 47.9275 51.5299 48.7719C50.5332 49.1915 49.8457 49.4321 48.9099 50C49.4857 49.3469 49.9529 49.1179 50.757 48.7936C51.4008 48.5668 52.0812 48.3588 52.674 48.0162C53.353 47.6236 53.9203 47.0441 54.1219 46.2699C54.2839 45.6478 54.2144 44.9424 54.0079 44.3386C53.0607 41.5642 50.7962 42.1628 50.0423 40.8304C48.9642 38.9243 52.301 36.9549 53.3792 35.8134C53.8927 35.2696 54.3248 34.6155 54.5353 33.8936C54.756 33.1381 54.7252 32.383 54.4481 31.6469C53.179 28.2786 48.901 29.1098 47.4913 26.5082C46.56 24.7905 47.9968 22.9901 48.464 21.3679C48.8129 20.1572 48.7328 18.903 48.1027 17.7954C47.4361 16.6229 46.3224 15.9083 44.9918 15.7284C44.2924 15.6339 43.6013 15.6298 42.9152 15.4409C39.8457 14.5957 39.9956 11.1438 38.6483 8.82815C37.449 6.7668 35.1183 5.0828 32.6293 5.60205C31.895 5.7553 31.1444 6.19495 30.387 6.16585C29.7859 6.1427 29.4496 5.7442 28.9014 5.61358C28.344 5.48077 27.7917 5.67352 27.3217 5.96708C25.9667 6.81336 25.3583 8.15854 25.0085 9.65303C24.9037 7.41999 25.7478 4.23555 28.4159 4Z" fill="#FDFAF9" stroke="#473C39" stroke-width="0.3"/>
<path d="M41.0136 8C41.057 8.0436 41.0494 8.02982 41.0763 8.08032C41.5748 9.00566 41.9556 9.54207 43.004 9.94322C44.3796 10.4693 45.611 9.89203 46.8708 9.35527C48.7599 8.51966 51.1175 8.87267 52.4949 10.3905C53.1874 11.153 53.8451 12.6002 55.197 11.988C55.5478 12.2153 56.4573 12.7101 56.6719 12.971C57.6332 14.1416 56.4427 14.724 57.7439 15.9494C54.9749 14.7972 55.4701 12.8122 55.1594 12.6058C55.1213 12.6361 55.0625 12.6877 55.0483 12.7323C54.7715 13.6143 54.8021 14.6762 55.093 15.5117C55.6951 17.2408 57.033 17.2772 58.5408 17.9646C59.1853 18.2584 59.6655 18.8073 59.8627 19.4509C60.1325 20.3312 59.9918 20.9877 59.553 21.7749C58.4251 23.5035 57.5758 23.6589 57.9289 26C56.0482 25.505 53.766 25.7785 52.3871 24.3835C52.0415 24.0388 51.7977 23.6149 51.6806 23.1539C51.2281 21.2998 53.2162 20.106 54.0988 18.6241C54.4759 17.9762 54.6821 17.2527 54.6995 16.5142C54.7324 15.2616 54.224 14.2045 53.3102 13.3132C51.914 11.9514 49.9218 11.447 47.9648 11.8008C46.9136 11.9933 45.8912 12.3355 44.8107 12.3146C43.1476 12.2825 41.6246 11.4038 41.1634 9.85156C40.967 9.19098 40.9939 8.6748 41.0136 8Z" fill="#FDFAF9" stroke="#473C39" stroke-width="0.3"/>
<path d="M21.9441 28C21.9868 28.3251 21.7677 29.4376 21.7835 29.9452C21.8308 31.4617 22.1063 32.8151 21.2738 34.1561C20.5922 35.2539 19.8637 36.4097 20.1619 37.7983C20.5762 40.2453 23.1745 40.7812 23.9758 42.8676C24.8433 45.1265 22.745 45.6374 22.0227 47.2003C21.5276 49.0513 23.9688 49.4801 24.8982 50.2455C25.6417 50.8308 26.0328 51.6358 25.9978 52.6676C25.9014 55.5069 21.884 56.0931 23.1529 59.5265C23.3315 60.0095 23.6514 60.3124 24.0895 60.4926C23.876 60.6909 23.7211 60.8226 23.4928 61C22.485 60.863 21.3444 60.1625 21.2749 58.9328C21.1965 57.5469 22.5572 56.3039 23.3136 55.3344C24.1657 54.2123 24.6106 52.6374 23.6449 51.3899C22.6707 50.1312 20.9447 50.286 19.8897 49.0914C18.7461 47.7967 19.2098 46.0288 20.0854 44.7377C20.4264 44.233 20.9472 43.7508 21.2203 43.2207C21.3829 42.9121 21.4632 42.5585 21.4519 42.2018C21.3871 39.4817 16.9621 39.1108 17.0002 36.0051C17.0251 33.9732 18.4863 32.742 19.6332 31.4035C19.9972 31.7386 20.3666 32.094 20.5601 32.5721C21.1364 33.9958 19.733 35.0385 18.597 34.3815C18.3764 34.254 18.1675 34.114 17.9415 34.005L17.8934 33.9822C18.505 34.9033 19.6165 35.0826 20.4987 34.5352C20.9176 34.2799 21.2256 33.849 21.3529 33.3401C21.6191 32.2698 20.9533 31.2758 20.4859 30.3982C21.1494 29.5117 21.4478 28.9953 21.9441 28Z" fill="#FDFAF9" stroke="#473C39" stroke-width="0.3"/>
<path d="M42.0522 12C43.9297 13.2742 45.5419 12.6524 47.5709 12.2274C48.9191 11.9449 50.5201 12.2778 51.6467 13.0457C53.8818 14.5566 54.4106 17.1859 52.8187 19.3693C51.9268 20.593 50.4942 21.7936 50.7965 23.4296C50.9454 24.2331 51.4614 24.9238 52.1392 25.38C53.6308 26.3848 55.4673 26.0706 57.1227 26.6373C57.8195 28.3347 59.1064 29.5746 60.9293 30.0538C61.1208 31.356 60.9457 32.0653 60.1258 33.1896C58.8658 34.9175 56.1813 36.0141 56.4573 38.5154C56.5435 39.2961 56.9961 39.9215 57.6148 40.3805C57.9271 40.6082 58.2644 40.8001 58.6207 40.9527C57.5689 41.103 56.4328 40.9012 55.5708 40.2637C54.9884 39.8324 54.5804 39.2026 54.4859 38.4853C54.3688 37.5942 54.7506 36.7571 55.3093 36.0774C56.6457 34.4513 59.4641 33.3651 59.2107 30.8646C59.1214 29.9833 58.6352 29.131 57.9416 28.5723C55.3643 26.4956 51.8351 29.2396 48.9123 26.0181C48.3526 25.4009 47.9446 24.6377 47.8538 23.8068C47.7462 22.8248 48.1311 21.9381 48.7525 21.1871C49.9213 19.7748 52.1151 18.5766 51.9122 16.4845C51.8237 15.5737 51.3044 14.781 50.5927 14.2132C49.2718 13.1599 47.4584 13.0866 45.8338 13.0648C45.2101 13.0565 44.5833 13.0705 43.9696 12.947C43.256 12.8017 42.5837 12.5034 42 12.0733L42.0522 12Z" fill="#FDFAF9" stroke="#473C39" stroke-width="0.3"/>
<path d="M33 7.00683C33.8231 6.95566 34.8368 7.19351 35.5455 7.6699C38.1726 9.49461 37.0145 12.8736 38.998 15.1869C41.1125 17.6526 44.0018 15.8516 46.3289 17.441C47.0767 17.9443 47.6012 18.7501 47.7818 19.6739C47.8907 20.2078 47.8763 20.7851 47.7194 21.3006C47.0459 23.5128 44.3773 23.4564 43.2882 25.1998C43.0738 25.5431 42.9485 26.166 43.0671 26.5614C43.7039 28.6826 47.1851 28.4545 48.6996 29.5135C49.3448 29.9645 49.7769 30.5484 49.9372 31.3108C50.0845 31.9945 49.9701 32.7125 49.6199 33.3061C49.0954 34.1771 48.0059 34.7091 47.0927 34.9734C46.9324 35.0197 46.7948 35.0095 46.6572 34.9115L46.6501 34.8268C46.8475 34.424 47.4683 34.1045 47.832 33.9014C50.0385 32.5879 48.8848 29.8821 47.2518 32.1176C47.4468 31.2495 47.4543 30.5241 47.0349 29.7154C46.0243 27.767 43.9646 28.7931 42.3932 28.3364C41.5598 28.0942 41.2252 27.1754 41.4758 26.3394C42.1543 24.0478 45.7454 24.0443 46.4222 21.8304C47.3269 18.872 44.3647 16.8681 41.8906 17.5664C40.2555 18.0278 38.4587 19.0156 36.8613 18.3328C33.9462 17.063 35.6591 14.0939 35.9419 11.8295C36.2559 9.31503 35.0677 7.82155 33 7.00683Z" fill="#FDFAF9" stroke="#473C39" stroke-width="0.3"/>
<path d="M38.5066 1.01318C38.5542 1.008 38.5999 1.00572 38.6473 1.00397C39.5319 0.97134 40.3537 1.1394 41.1388 1.52397C44.0585 2.95434 42.8729 5.529 44.5809 6.93549C46.5566 8.5622 48.6649 6.13907 50.2775 5.29864C50.7682 5.04305 51.3121 4.87304 51.8772 4.84985C52.7223 4.81515 53.6023 5.13525 54.2207 5.66488C54.9789 6.31464 55.2849 7.27396 55.2374 8.21042C55.2088 8.77966 55.0935 9.34914 55.1222 9.9201C55.1451 10.3753 55.292 10.865 55.6765 11.1741C56.0063 11.4394 56.471 11.5101 56.8944 11.4768C57.8059 11.4054 58.4251 10.8915 59 10.2833C58.6675 10.9219 58.1173 11.5725 57.4281 11.7864C54.9318 12.561 54.7378 11.1112 54.8153 9.32799C54.8619 8.25149 54.1544 6.96104 53.0579 6.55283C50.5701 5.61899 48.9091 7.86623 47.2717 9.1414C46.2147 9.96501 44.7794 10.284 43.4993 9.76838C42.5466 9.31795 42.168 8.6695 41.8185 7.77942C41.9901 6.963 42.1653 6.13123 42.1102 5.29562C42.0452 4.30658 41.642 3.39629 40.8242 2.73958C40.2883 2.30894 39.625 2.06305 38.9242 1.98002C35.6059 1.587 34.5276 4.80992 32.6081 4.98704C31.1083 5.12537 30.0687 3.5456 28.4245 3.67185C27.5738 3.73717 26.8518 4.18417 26.3166 4.77979C25.0368 6.20383 24.9025 8.03412 25.0856 9.79965C24.8488 9.43905 24.7563 9.37789 24.3968 9.14353C23.7352 7.63521 23.8823 5.89369 24.9789 4.58977C25.4208 4.0554 26.0139 3.64474 26.6924 3.40319C29.4956 2.42978 30.4159 4.96744 32.5939 4.20981C34.7689 3.45333 35.74 1.31514 38.5066 1.01318Z" fill="#FDFAF9" stroke="#473C39" stroke-width="0.3"/>
<path d="M17.8485 31C18.1734 31.3222 18.7146 31.7349 19.079 32.0175C17.8582 33.2463 16.2759 34.6465 16.2186 36.5099C16.1249 38.2881 17.7489 39.517 19.1023 40.3491C20.9374 41.4774 21.953 43.1048 19.7393 44.6328C18.4503 45.5223 16.7327 45.599 15.6113 46.6468C15.0782 47.1397 14.7645 47.8299 14.7412 48.5603C14.6939 50.6478 16.8807 50.7 17.9679 51.7837C18.8396 52.6522 18.1347 54.1837 17.2833 54.8414C15.9797 55.8488 14.8256 56.1297 13.2145 55.9486C13.7469 55.8996 14.407 55.8571 14.9165 55.7476C15.2958 55.6169 15.5179 55.5298 15.8496 55.2966C16.5368 54.822 17.0064 54.0877 17.1524 53.2586C17.3403 52.1535 16.8408 51.0221 15.5833 51.0299C14.9606 51.0339 14.4553 51.1676 13.8204 51.079C12.1851 50.8503 11.5049 49.2808 12.3913 47.8798C13.3562 46.3969 15.2125 46.3497 16.7077 45.794C18.4065 45.1446 19.059 43.1942 18.2937 41.569C17.4997 39.818 16.0401 39.4073 14.4119 38.7455C13.3648 38.3261 12.3071 37.5284 12.5896 36.2122C13.264 33.5595 17.3492 33.7164 17.8485 31Z" fill="#FDFAF9" stroke="#473C39" stroke-width="0.3"/>
<path d="M54.6827 28.0194C55.6475 27.9328 56.5934 28.1312 57.3934 28.7229C58.063 29.2096 58.5165 29.9619 58.6495 30.8075C59.1577 34.1505 53.787 35.0975 54.3249 38.5478C54.6514 40.6429 56.8066 41.375 58.6172 41.0234C59.2727 41.3129 59.8285 41.5348 60.2955 42.1105C61.8654 44.0677 60.6303 46.9302 58.3757 47.4882C57.1138 47.8004 55.5915 47.4204 54.5565 48.3819C54.1938 48.7232 53.9785 49.2059 53.9601 49.7182C53.912 50.9465 54.8684 51.557 55.9246 51.5742C56.4575 51.5059 56.718 51.3733 57.2078 51.1404C56.0124 52.304 54.9536 52.1925 53.6173 51.3654C53.4288 51.2487 53.1697 51.0615 52.9636 51.0827C52.8738 51.1857 52.9039 51.1624 52.9009 51.3478C52.5962 51.291 52.2183 50.7448 52.1013 50.4577C51.4526 48.8544 54.0947 47.9992 55.0594 47.3579C56.3694 46.5387 57.8975 45.4216 57.5142 43.5714C56.9721 40.9507 52.9272 40.9424 53.4773 37.7089C53.79 35.785 55.8172 34.8491 56.3196 33.001C56.9633 30.6337 56.0366 28.8261 53.8677 28.0622L54.6827 28.0194Z" fill="#FDFAF9" stroke="#473C39" stroke-width="0.3"/>
<path d="M15.1573 39C16.2405 39.1524 17.805 40.0386 18.3749 40.9253C18.8451 41.6569 19.1505 42.526 18.9233 43.3725C18.2512 45.8759 15.222 45.3736 13.3151 46.4913C12.5645 46.9332 12.0125 47.5634 11.8093 48.3602C11.6784 48.8733 11.7988 49.4823 12.1161 49.9095C12.7609 50.7776 13.816 51.0174 14.8976 50.9081C15.3295 50.8865 15.7907 50.7906 16.2192 50.8804C17.3415 51.1154 17.6331 52.0941 17.3493 53.0119C17.0713 53.9107 16.4356 54.5486 15.5636 55C15.9106 54.7227 16.0879 54.5638 16.3584 54.2286C16.8124 53.5561 17.1133 52.5407 16.2874 51.9731C15.1907 51.2743 13.6854 51.9291 12.5043 52.082C10.3513 52.3615 8.27931 51.3007 8.02213 49.2042C7.95545 48.6747 8.04008 48.1387 8.26749 47.6484C9.14681 45.7731 11.7762 45.516 13.6356 44.8081C15.3628 44.1503 17.0611 42.9993 16.8463 41.0691C16.7409 40.1224 15.9459 39.528 15.1573 39Z" fill="#FDFAF9" stroke="#473C39" stroke-width="0.3"/>
<path d="M42.4421 18.0061C43.1001 17.9699 43.7563 18.0957 44.3474 18.3711C45.1261 18.7372 45.7734 19.3632 46.0436 20.1533C46.1837 20.5716 46.2066 21.0168 46.111 21.4461C45.6117 23.6903 41.9635 23.6287 40.9636 25.6625C40.7433 26.0586 40.663 26.6783 40.8521 27.0887C41.5563 28.6196 43.4981 27.9834 44.8563 28.1496C45.7836 28.2631 46.4641 28.6486 46.8121 29.5302C47.0898 30.2155 47.0586 30.978 46.7258 31.6411C46.3521 32.3956 45.7087 32.7263 44.9269 33C45.9039 32.3326 46.5249 31.7659 46.249 30.5048C46.0903 29.9949 45.8673 29.6194 45.4645 29.2507C44.2063 28.0988 42.4378 28.6278 40.9512 28.1176C39.8265 27.7318 39.2396 26.4967 39.7071 25.4621C40.158 24.4077 41.2399 23.9516 41.6938 22.9297C42.064 22.0459 41.6198 21.0004 40.7741 20.5338C38.8821 19.4902 37.036 21.1025 35.0567 20.3865L35 20.3654C38.5296 20.379 39.627 18.2392 42.4421 18.0061Z" fill="#FDFAF9" stroke="#473C39" stroke-width="0.3"/>
<path d="M24.0484 12.013C24.879 11.9485 25.2536 12.126 26 12.4863C24.7621 12.5325 23.9351 13.143 23.8677 14.5218C23.7889 15.7311 24.9044 17.0697 24.4582 18.2582C23.9027 19.7379 21.5865 18.9321 21.0646 20.7277C20.5671 22.4388 22.1666 22.7974 22.7507 24.0551C23.1439 24.9015 22.9639 25.6951 22.6768 26.5251C20.9455 27.1525 19.8884 28.1127 20.5456 30.2175C20.3424 30.4383 20.0591 30.8954 19.8038 30.9968C19.7523 31.0173 19.6751 30.9336 19.6157 30.8878C19.4241 30.7379 19.2336 30.5863 19.0442 30.4331C18.5919 30.0651 18.0274 29.4874 18.0015 28.8628C17.9294 27.124 20.4091 26.8631 21.1347 25.9117C21.9918 24.788 20.1152 23.9213 19.6102 23.1853C19.2602 22.6752 19.0938 22.293 19.0142 21.6687C18.8901 20.7331 19.1361 19.7853 19.6952 19.0433C20.2034 18.3649 21.0235 17.8201 21.867 17.8183C22.3207 17.8173 23.2493 18.0516 23.5145 17.5173C24.0658 16.3456 22.9163 15.2312 22.7135 14.0945C22.4984 12.8895 22.8964 12.2743 24.0484 12.013Z" fill="#FDFAF9" stroke="#473C39" stroke-width="0.3"/>
<path d="M43.939 39C43.9729 39.3915 43.8164 39.8553 44.0098 40.347C44.7849 42.3197 48.0037 41.9646 48.8879 43.8185C49.0625 44.1855 49.0216 44.7314 48.8448 45.0992C48.4179 45.9887 47.5575 46.2906 46.6909 46.6226C45.688 46.9722 45.08 47.2931 44.3144 48C43.8172 47.209 43.4549 46.3836 43.2457 45.4789C42.8288 43.6753 42.8702 40.6252 43.939 39Z" fill="#FDFAF9" stroke="#473C39" stroke-width="0.3"/>
<path d="M21.9732 32C22.0505 32.1016 22.3683 33.932 22.425 34.2076C22.607 35.1051 22.8271 35.9939 23.0848 36.8718C23.3538 37.7884 23.7062 38.7279 24.0972 39.613C24.8356 41.284 26.158 42.977 25.9845 44.8963C25.8603 46.2683 24.414 46.9138 24.1528 48.0658C23.8997 49.1814 25.2682 50.0642 25.8791 51C25.2945 50.447 24.7508 50.2055 24.036 49.8834C23.4699 49.6401 22.6228 49.1992 22.3057 48.6327C21.6303 47.3872 23.3809 46.4528 24.0514 45.6415C25.1728 44.2849 24.7873 42.7619 23.6775 41.5605C22.6698 40.4699 21.2864 39.8071 20.4933 38.4921C19.8229 37.3808 19.8434 36.0597 20.5086 34.9442C21.1546 33.9002 21.6702 33.236 21.9732 32Z" fill="#FDFAF9" stroke="#473C39" stroke-width="0.3"/>
<path d="M26.2652 43C26.7313 43.4206 27.0146 45.8772 27.1221 46.6162C27.5312 49.4307 28.0744 52.3114 27.9915 55.167C27.9595 56.2718 27.6251 57.4557 27.161 58.4389C27.1924 57.6843 27.0522 56.9673 26.5895 56.3387C26.5215 56.2459 26.5011 56.2598 26.4208 56.2567C26.3567 56.3564 26.3899 56.3577 26.4052 56.4811C26.5722 57.8353 26.0892 58.9458 25.2354 59.92L25.1218 59.9998C24.5949 60.0149 24.2149 59.2987 24.0969 58.8237C23.4974 56.4116 25.8372 55.5643 26.7956 53.8921C27.5363 52.6 26.8555 50.9369 26.0809 49.8549C25.7412 49.3738 25.0904 48.8928 24.9508 48.2711C24.7219 47.2517 25.7584 46.7163 26.1837 45.9077C26.7346 44.8612 26.5141 44.0673 26.2652 43Z" fill="#FDFAF9" stroke="#473C39" stroke-width="0.3"/>
<path d="M56.8789 26.5084C56.1985 23.2663 59.0899 23.2108 58.6842 20.2581C58.5916 19.5836 58.1073 18.841 57.5264 18.4956C56.0092 17.6102 54.5792 17.799 54.1164 15.7004C53.9798 15.0809 53.969 14.6489 54.055 14C55.196 18.3226 59.7957 15.9685 60.8814 20.0031C61.8355 23.5493 56.6328 24.2071 59.5311 27.9858L59.4147 28C58.6457 27.2385 57.9057 26.8522 56.8789 26.5084Z" fill="#FDFAF9" stroke="#473C39" stroke-width="0.3"/>
<path d="M28.8955 8.01707C28.9814 8.00688 29.0677 8.00143 29.1541 8.00046C30.1387 7.98626 31.2374 8.29768 31.9253 9.04225C34.0646 11.358 31.6594 13.8955 31.6759 16.3715C31.6839 17.5637 32.2243 18.2472 33 19C32.8901 18.9557 32.7811 18.9093 32.6729 18.8609C31.7729 18.4523 31.2472 17.7933 30.9035 16.8733C30.2047 14.8227 31.9755 12.9209 30.4364 10.8067C29.0755 8.93721 26.325 8.8788 26.0263 11.5235C25.9239 10.741 26.1227 9.94835 26.5811 9.31259C27.1651 8.51337 27.9575 8.15565 28.8955 8.01707Z" fill="#FDFAF9" stroke="#473C39" stroke-width="0.3"/>
<path d="M20.0568 46L20.0707 46.0134C20.1224 46.2214 19.0938 47.6128 19.7237 48.9682C20.7895 51.2617 23.537 50.5537 24.6452 52.3007C26.1682 54.7022 22.3267 56.4285 21.813 58.4224C21.4089 59.9668 22.885 60.8491 24.2443 61.1087C23.8531 61.4133 23.4679 61.6461 23.0467 61.9103C23.002 61.9431 22.9234 62.0036 22.867 61.9998C22.1738 61.9503 21.2319 61.5205 20.7359 61.0839C20.1752 60.6155 19.7555 59.9878 19.7276 59.2564C19.6186 56.4079 23.7206 56.4373 23.5337 53.4892C23.3485 50.5664 19.1691 51.0692 19.0033 48.2002C18.9538 47.3439 19.4654 46.6007 20.0568 46Z" fill="#FDFAF9" stroke="#473C39" stroke-width="0.3"/>
<path d="M13.491 18C13.5585 18.0774 13.8255 18.7727 13.8816 18.9116C13.7262 19.2312 13.5667 19.5463 13.435 19.8796C12.9489 21.11 13.1852 22.4875 13.8934 23.5355C14.7578 24.8147 15.361 25.8012 14.7538 27.433C13.3036 28.0156 12.5324 28.1766 11.0789 29C10.3642 28.7042 10.0603 28.4871 9.54501 27.8557C9.30185 27.5054 9.16321 27.1567 9 26.7528C9.06877 26.8453 9.13911 26.9363 9.2111 27.0255C10.1555 28.1958 11.6843 28.2384 12.6513 27.112C12.9036 26.8156 13.0824 26.4467 13.1691 26.0436C13.5548 24.199 11.4192 23.3766 11.4555 21.5961C11.4843 20.1854 12.6914 18.9256 13.491 18Z" fill="#FDFAF9" stroke="#473C39" stroke-width="0.3"/>
<path d="M53.6109 47L53.6624 47.0186C53.5325 47.1586 53.1611 47.33 52.9793 47.4332C52.2328 47.8569 51.1699 48.6411 51.2167 49.7018C51.2644 50.7875 52.6273 51.4538 53.272 52.1644C54.1911 53.177 54.272 53.9655 53.3309 55C53.3638 54.0324 52.929 53.8413 52.1497 53.6946C51.9458 53.6569 51.7328 53.6221 51.5358 53.5495C51.2817 53.4549 51.037 53.3117 50.8188 53.1393C50.3595 52.7762 49.9824 52.2891 49.5494 51.8884C49.171 51.5388 48.7173 51.2637 48.361 50.893C48.248 50.7755 48.145 50.637 48.0779 50.4818C47.9761 50.2454 47.9748 49.9526 48.0696 49.7124C48.4043 48.868 52.6563 47.4585 53.6109 47Z" fill="#FDFAF9" stroke="#473C39" stroke-width="0.3"/>
<path d="M13.8824 19C14.1897 19.222 14.6251 20.0319 14.9821 20.3295C16.8028 21.8474 19.0008 23.3918 17.5039 25.6574C17.2443 26.0504 16.8673 26.3004 16.4093 26.5672C16.0165 26.7412 15.7151 26.8535 15.3029 27C16.9317 23.4251 10.7947 23.2537 13.8824 19Z" fill="#FDFAF9" stroke="#473C39" stroke-width="0.3"/>
<path d="M37.2507 2.00749C37.5073 1.99185 37.7648 2.0007 38.0187 2.03394C38.9291 2.13974 39.7483 2.56474 40.2832 3.20847C41.2743 4.3838 41.0232 5.67527 40.7847 7C40.3842 5.89013 40.0877 5.23886 39.0436 4.47813C38.5369 4.14212 37.9625 3.89001 37.3493 3.73453C35.7524 3.32447 34.4287 3.61208 33 4.28094C34.3933 3.19611 35.284 2.19817 37.2507 2.00749Z" fill="#FDFAF9" stroke="#473C39" stroke-width="0.3"/>
<path d="M23.6414 11.0047C24.1915 10.975 24.5226 11.0886 25 11.2949L24.829 11.3029C22.2987 11.403 22.737 13.6481 21.0085 14.699C19.7144 15.4938 17.9919 15.3234 16.6859 16.1414C14.4595 17.5356 14.4259 19.8728 15.769 21.8097C15.8342 21.9057 15.8225 21.8918 15.8652 22C15.6745 21.8686 15.5234 21.6966 15.3699 21.5418C14.0373 20.2315 13.7666 19.818 14.1748 18.1244C14.9118 15.0673 17.5682 15.4671 19.9321 14.2723C21.484 13.4879 21.5248 11.3713 23.6414 11.0047Z" fill="#FDFAF9" stroke="#473C39" stroke-width="0.3"/>
<path d="M22.052 15C22.1565 15.4181 22.2514 15.6258 22.4203 15.9919C22.7002 16.5983 23.2088 17.4465 22.9078 18.1247C22.6711 18.6578 21.7893 18.3898 21.3643 18.4067C20.437 18.4671 19.547 19.1131 19.0585 19.9423C18.4962 20.9044 18.4158 21.8295 18.6432 22.9047L18.6637 23C18.1083 21.7726 17.754 20.6644 18.2062 19.2988C18.4821 18.4421 19.0728 17.7418 19.8429 17.3583C21.0673 16.736 22.1546 17.4451 21.9644 15.3532C21.9843 15.1754 21.9828 15.1594 22.052 15Z" fill="#FDFAF9" stroke="#473C39" stroke-width="0.3"/>
<path d="M33 4.74293C34.3168 4.21088 35.3628 3.85417 36.8823 4.0583C38.1979 4.23501 39.4115 4.79208 40.21 5.69633C40.7538 6.31233 41.0332 7.08661 41.2657 7.82392C41.2888 7.89656 41.2133 8.1229 41.2019 8.21687C41.0751 9.25036 41.2479 10.1574 42 10.9897L41.8756 11C40.3501 9.19664 40.9379 7.62636 38.5632 6.11726C36.8373 5.02067 35.1633 4.56775 33 4.74293Z" fill="#FDFAF9" stroke="#473C39" stroke-width="0.3"/>
<path d="M50.7002 6.00942C52.6474 5.87455 53.6987 7.20652 53.781 8.80282C53.8242 9.64901 53.7178 10.1675 54 11C53.1729 10.0907 53.29 9.37665 52.4322 8.49208C50.9308 7.13921 48.7311 7.3805 47 8.20505C48.0267 7.25875 49.1928 6.2098 50.7002 6.00942Z" fill="#FDFAF9" stroke="#473C39" stroke-width="0.3"/>
<path d="M44.7216 51.0138C45.6678 50.9482 46.8006 51.1246 47.68 51.3696C46.672 52.7834 47.996 53.7554 50 53.8L49.4387 53.9256C46.8919 54.34 44.1851 52.9732 44 51.0813C44.2214 51.0467 44.493 51.0316 44.7216 51.0138Z" fill="#FDFAF9" stroke="#473C39" stroke-width="0.3"/>
<path d="M24.9404 18C25.0447 18.1273 24.9811 18.4043 24.9781 18.5506C24.9509 19.8958 23.1231 19.961 22.6751 20.9532C22.0519 22.4648 24.2091 23.1362 24.7222 24.259C25.2026 25.3103 23.8785 25.758 23.041 26L22.9998 25.9507C23.2932 24.688 23.4185 23.9035 22.2799 22.8767C21.6938 22.3482 20.7391 21.6509 21.0667 20.794C21.8498 18.7458 24.2751 20.1949 24.9404 18Z" fill="#FDFAF9" stroke="#473C39" stroke-width="0.3"/>
<path d="M17.5978 46L17.6128 46.0069L17.6237 46.0432C17.5104 46.1026 17.3981 46.1635 17.2867 46.2257C14.9719 47.5232 15.366 49.2878 17.7857 50.0668C18.3878 50.2893 19.4973 50.6579 19.7964 51.217C20.8042 53.1007 17.7635 53.8285 17.3648 55.507L17.3521 55.5632C17.3304 55.7093 17.3059 55.8547 17.278 56C17.2689 55.9866 17.2598 55.9733 17.2506 55.9596C16.9521 54.4809 19.2011 53.5508 18.7198 52.0502C18.3633 50.9388 17.232 50.7636 16.3002 50.2861C15.1437 49.6938 14.6941 48.7872 15.2153 47.6758C15.6811 46.7267 16.6001 46.3678 17.5978 46Z" fill="#FDFAF9" stroke="#473C39" stroke-width="0.3"/>
<path d="M49.5789 8.01813C51.2205 7.85433 52.5593 8.81233 53.0223 10.414C53.0974 10.6725 53.3061 11.1092 53.4554 11.3228C53.54 11.4434 53.9909 11.8325 54 11.945C53.2675 12.1837 52.8261 11.6015 52.4503 11.0437C51.2102 9.0032 49.1966 8.33604 47 8.99103C47.7828 8.41958 48.6346 8.11587 49.5789 8.01813Z" fill="#FDFAF9" stroke="#473C39" stroke-width="0.3"/>
<path d="M20.9702 12C20.999 12.0312 20.9824 12.0078 21 12.0846C19.9743 13.8876 19.3119 13.9804 17.6158 14.5589C16.4171 14.9677 15.609 15.6963 15.0222 16.9994L15.0189 17L15 16.9559C16.2572 12.2304 18.4615 14.1313 20.9702 12Z" fill="#FDFAF9" stroke="#473C39" stroke-width="0.3"/>
<path d="M58 26C59.4591 26.697 60.4446 27.8796 61 30C60.8818 29.9418 60.7648 29.879 60.6485 29.8119C59.3766 29.068 58.5356 27.8334 58 26Z" fill="#FDFAF9" stroke="#473C39" stroke-width="0.3"/>
<path d="M48.4132 32.0034C48.941 31.9662 49.0798 32.2361 48.9597 32.6372C48.79 33.2051 47.9637 33.4905 47.393 33.7606L47 34C47.2956 33.2924 47.5771 32.3667 48.4132 32.0034Z" fill="#FDFAF9" stroke="#473C39" stroke-width="0.3"/>
<path d="M57.5163 37C57.5407 37.1321 57.4816 37.3015 57.4547 37.4388C57.0612 39.4395 58.9692 41.1585 61 40.0614C60.7949 40.2487 60.6078 40.3722 60.3791 40.5311C59.924 40.7902 59.7257 40.8723 59.2136 41C58.9015 40.8698 58.6506 40.7582 58.3586 40.5919C56.9135 39.7695 56.6022 38.3378 57.5163 37Z" fill="#FDFAF9" stroke="#473C39" stroke-width="0.3"/>
<path d="M21.9216 27L21.9849 27.0013L22 27.0684C21.4614 28.2562 20.9611 28.9729 20.155 30C19.9178 29.6867 19.9847 28.7406 20.1433 28.3957C20.512 27.5937 21.1377 27.306 21.9216 27Z" fill="#FDFAF9" stroke="#473C39" stroke-width="0.3"/>
<path d="M25.7534 57C26.0203 57.3374 26.0655 58.5775 25.9133 59.0439C25.7441 59.5624 25.5906 59.7643 25.2534 59.9723C25.1576 59.995 25.1184 59.9977 25.0209 60L25 59.9662L25.1756 59.653C25.5814 58.9199 25.8112 57.958 25.7534 57Z" fill="#FDFAF9" stroke="#473C39" stroke-width="0.3"/>
<path d="M19.831 31C20.4794 31.7321 21.503 32.6733 20.7133 33.5269C20.5608 33.6918 20.2418 33.9482 19.9467 34L20.0021 33.9518C21.2389 33.093 20.1095 32.1485 19 31.5735C19.2844 31.3939 19.5619 31.1907 19.831 31Z" fill="#FDFAF9" stroke="#473C39" stroke-width="0.3"/>
<path d="M44.7212 49C44.8354 49.036 45.1465 49.2139 45.2538 49.2719C45.7817 49.5553 46.367 49.7705 47 50L46.3463 49.9666C45.4925 49.9102 44.844 49.9404 44 49.9775C44.0837 49.5519 44.2335 49.3563 44.7212 49Z" fill="#FDFAF9" stroke="#473C39" stroke-width="0.3"/>
<path d="M61.0756 28C61.964 29.1402 62.9279 29.7373 64 28.5403C63.3592 29.9091 62.8209 30.1153 61.6879 29.9526C61.5029 29.188 61.358 28.7307 61 28.0826L61.0756 28Z" fill="#FDFAF9" stroke="#473C39" stroke-width="0.3"/>
<path d="M14.993 28L15 28.0325C14.9538 28.1439 14.7224 28.3246 14.6048 28.4036C13.7628 28.9691 13.0246 29.057 12.0169 28.9723L12 28.9614L12.0112 28.9284C13.0423 28.4816 13.9025 28.2857 14.993 28Z" fill="#FDFAF9" stroke="#473C39" stroke-width="0.3"/>
<path d="M25.975 60L26 60.0364C25.9571 60.2139 25.6335 60.6556 25.5089 60.7954C24.776 61.6168 24.0297 61.9891 23.0281 62L23 61.9659C23.0462 61.8783 23.9559 61.1342 24.1126 60.9894C25.0074 60.8994 25.3099 60.6933 25.975 60Z" fill="#FDFAF9" stroke="#473C39" stroke-width="0.3"/>
<path d="M48 34C47.6608 34.4729 47.2328 34.9881 46.8744 35.4703C46.5043 36.0005 46.3121 36.3793 46 37C46.2569 36.0266 46.4837 35.0736 46.7212 34.0864C46.7155 34.2451 46.7146 34.273 46.7248 34.4387C46.9699 35.0061 47.6989 34.245 48 34Z" fill="#FDFAF9" stroke="#473C39" stroke-width="0.3"/>
<path d="M19 25C19.3882 25.047 20.3066 25.2265 20.5725 25.3105C21.2753 25.5324 21.0827 25.7025 20.2064 25.8639C19.9257 25.9099 19.581 25.9572 19.2872 26C19.3458 25.9669 19.4003 25.9333 19.4503 25.8993C19.9705 25.5475 19.5884 25.3185 19 25Z" fill="#FDFAF9" stroke="#473C39" stroke-width="0.3"/>
<path d="M14 18C14 18.1221 14 18.907 14 19V18.9389C14 18.8012 14 18.6527 14 18.5153C14 18.3695 14 18.1597 14 18Z" fill="#FDFAF9" stroke="#473C39" stroke-width="0.3"/>
<path d="M48 50C48 50.0874 48 50.563 48 50.8745V50.9658V51V50.8414V50.6089C48 50.3295 48 50.2386 48 50Z" fill="#FDFAF9" stroke="#473C39" stroke-width="0.3"/>
<path d="M24.8467 60.0201C25.3069 60.1028 25.5378 60.0546 26 60C25.6761 60.2626 25.4439 60.4073 25.1044 60.619C24.8163 60.7537 24.3116 60.8981 24 61C24.2632 60.7227 24.5885 60.3219 24.8467 60.0201Z" fill="#FDFAF9" stroke="#473C39" stroke-width="0.3"/>
<path d="M42.1306 11C42.4243 11.3493 42.6518 11.6211 43 11.9057L42.9403 12C42.556 11.702 42.2949 11.4103 42 11.0144L42.1306 11Z" fill="#FDFAF9" stroke="#473C39" stroke-width="0.3"/>
<path d="M25 10C25 10.1909 25 10.6343 25 11C25 10.8562 25 10.2958 25 10Z" fill="#FDFAF9" stroke="#473C39" stroke-width="0.3"/>
<path d="M22 15C22 14.7044 22 14.2764 22 14C22 14.1495 22 14.4163 22 14.5927C22 14.7765 22 14.7951 22 15Z" fill="#FDFAF9" stroke="#473C39" stroke-width="0.3"/>
</g>
<defs>
<clipPath id="clip0_4318_56">
<rect width="76" height="78" fill="white"/>
</clipPath>
</defs>
</svg>
